<svg xmlns="http://www.w3.org/2000/svg" viewBox="0 0 500 500"><g id="freepik--background-simple--inject-87"><path d="M323.83,36.06S244.49,4.89,168.61,48.88,56.28,183.38,24.83,255.82,14.63,403.43,74.41,439.1s98.47-13.38,181-13.52,105.06,12.73,172.29-33.76,76.55-160.45,20.22-246.54S323.83,36.06,323.83,36.06Z" style="fill:#3DABB3"></path><path d="M323.83,36.06S244.49,4.89,168.61,48.88,56.28,183.38,24.83,255.82,14.63,403.43,74.41,439.1s98.47-13.38,181-13.52,105.06,12.73,172.29-33.76,76.55-160.45,20.22-246.54S323.83,36.06,323.83,36.06Z" style="fill:#fff;opacity:0.7000000000000001"></path></g><g id="freepik--Floor--inject-87"><path d="M448,451.1h-11a.5.5,0,0,1-.5-.5.5.5,0,0,1,.5-.5h11a.5.5,0,0,1,.5.5A.5.5,0,0,1,448,451.1Z" style="fill:#263238"></path><path d="M429.16,451.1H38.32a.5.5,0,0,1-.5-.5.5.5,0,0,1,.5-.5H429.16a.5.5,0,0,1,.5.5A.5.5,0,0,1,429.16,451.1Z" style="fill:#263238"></path></g><g id="freepik--Plant--inject-87"><path d="M111.29,255.08s0-4.18-5.86-10-9.62-9.2-9.62-9.2-2.92,9.62,2.51,15.48a103.36,103.36,0,0,0,13,11.29Z" style="fill:#3DABB3"></path><path d="M102.79,281.2s0-4.18-5.85-10-9.62-9.2-9.62-9.2-2.93,9.62,2.51,15.47a102.43,102.43,0,0,0,13,11.3Z" style="fill:#3DABB3"></path><path d="M110.92,262.2s.44-4.15,6.88-9.36,10.54-8.13,10.54-8.13,1.89,9.87-4.13,15.12a103,103,0,0,1-14.09,9.86Z" style="fill:#3DABB3"></path><path d="M100.65,293.05s.88-4.09,7.83-8.59,11.33-7,11.33-7,.85,10-5.69,14.6a102.61,102.61,0,0,1-15,8.33Z" style="fill:#3DABB3"></path><path d="M102.58,326.68s0-4.18,5.86-10,9.62-9.2,9.62-9.2,2.92,9.62-2.51,15.47a102.42,102.42,0,0,1-13,11.29Z" style="fill:#3DABB3"></path><path d="M102.49,334.89s.59-4.14-4.37-10.77-8.22-10.47-8.22-10.47-4.26,9.1.29,15.67a102.73,102.73,0,0,0,11.23,13Z" style="fill:#3DABB3"></path><path d="M96.71,359.21s0-4.18,5.86-10,9.62-9.2,9.62-9.2,2.92,9.61-2.51,15.47a103.36,103.36,0,0,1-13,11.29Z" style="fill:#3DABB3"></path><path d="M100.62,381.27s-1.06-4,3.12-11.19,7-11.34,7-11.34,5.27,8.56,1.49,15.6a103.48,103.48,0,0,1-9.68,14.21Z" style="fill:#3DABB3"></path><path d="M106.36,401.48a.25.25,0,0,1-.24-.18c-.08-.25-8.12-25.19-9.65-34.36-.9-5.4.55-10.34,2.23-16.06A91.5,91.5,0,0,0,102.1,336c.89-6.9-.31-13.75-1.47-20.37s-2.24-12.79-1.08-18.24a76.42,76.42,0,0,1,4.93-14.14c2.1-5,4.28-10.08,5.49-16.32a120.22,120.22,0,0,0,1.6-13,.25.25,0,1,1,.5,0,118.85,118.85,0,0,1-1.61,13c-1.22,6.3-3.41,11.44-5.52,16.42a75.59,75.59,0,0,0-4.9,14.06c-1.14,5.35-.06,11.52,1.08,18s2.37,13.55,1.48,20.53A92.09,92.09,0,0,1,99.18,351c-1.66,5.66-3.1,10.56-2.22,15.84,1.52,9.13,9.55,34,9.63,34.29a.25.25,0,0,1-.16.32Z" style="fill:#263238"></path><path d="M110.86,265.23a.27.27,0,0,1-.2-.09.25.25,0,0,1,0-.35l6.31-4.85a.25.25,0,0,1,.3.4L111,265.18A.21.21,0,0,1,110.86,265.23Z" style="fill:#263238"></path><path d="M111.15,259.66a.24.24,0,0,1-.21-.13l-2.64-4.7a.25.25,0,0,1,.09-.34.26.26,0,0,1,.34.1l2.64,4.7a.25.25,0,0,1-.09.34A.28.28,0,0,1,111.15,259.66Z" style="fill:#263238"></path><path d="M100.15,297.22a.23.23,0,0,1-.2-.1.25.25,0,0,1,0-.35s5.35-4,10.71-7.92a.24.24,0,0,1,.35,0,.25.25,0,0,1,0,.35c-5.37,3.91-10.66,7.88-10.71,7.92A.27.27,0,0,1,100.15,297.22Z" style="fill:#263238"></path><path d="M102.79,289a.24.24,0,0,1-.22-.14c0-.09-4.45-8.67-9.36-14.3a.24.24,0,0,1,0-.35.25.25,0,0,1,.35,0c5,5.68,9.38,14.32,9.42,14.4a.24.24,0,0,1-.11.34A.2.2,0,0,1,102.79,289Z" style="fill:#263238"></path><path d="M102.79,332.88a.2.2,0,0,1-.11,0,.25.25,0,0,1-.11-.34,66.5,66.5,0,0,1,11.34-15.18.26.26,0,0,1,.36,0,.25.25,0,0,1,0,.35A65.81,65.81,0,0,0,103,332.74.24.24,0,0,1,102.79,332.88Z" style="fill:#263238"></path><path d="M101.76,338.75a.26.26,0,0,1-.23-.16,72.56,72.56,0,0,0-5.7-10.81c-3-4.47-3.49-5.1-3.51-5.13a.25.25,0,1,1,.4-.3s.48.65,3.53,5.15A73.49,73.49,0,0,1,102,338.4a.25.25,0,0,1-.13.33Z" style="fill:#263238"></path><path d="M96.71,367.15l-.09,0a.25.25,0,0,1-.14-.32,70.69,70.69,0,0,1,4.78-9.66,61.59,61.59,0,0,1,6.19-8.11.25.25,0,0,1,.35,0,.26.26,0,0,1,0,.36,61,61,0,0,0-6.14,8A70.1,70.1,0,0,0,97,367,.26.26,0,0,1,96.71,367.15Z" style="fill:#263238"></path><path d="M102.53,388.8a.25.25,0,0,1-.25-.22,18.07,18.07,0,0,1,1.61-9.41c1.74-3.36,3.64-7.51,4.9-10.25.33-.71.6-1.31.82-1.77a.24.24,0,0,1,.33-.12.24.24,0,0,1,.12.33c-.21.46-.49,1.06-.81,1.77-1.26,2.74-3.17,6.9-4.92,10.27a17.71,17.71,0,0,0-1.55,9.12.26.26,0,0,1-.22.28Z" style="fill:#263238"></path><path d="M73,311s-.46-2.62,2.58-6.93,5-6.81,5-6.81,2.88,5.71.11,10a65.49,65.49,0,0,1-6.9,8.49Z" style="fill:#3DABB3"></path><path d="M81.11,326.41s-.45-2.63,2.58-6.93,5-6.82,5-6.82,2.88,5.72.1,10a65.49,65.49,0,0,1-6.9,8.49Z" style="fill:#3DABB3"></path><path d="M74,315.38s-.73-2.56-5.33-5.13-7.49-3.95-7.49-3.95-.12,6.39,4.23,9a65.06,65.06,0,0,0,9.9,4.65Z" style="fill:#3DABB3"></path><path d="M83.74,333.6s-1-2.47-5.84-4.53S70,325.92,70,325.92s.56,6.38,5.16,8.54a65.06,65.06,0,0,0,10.34,3.59Z" style="fill:#3DABB3"></path><path d="M86.18,354.9s-.46-2.62-4.76-5.66-7-4.72-7-4.72-.79,6.35,3.25,9.43A65.06,65.06,0,0,0,87,359.62Z" style="fill:#3DABB3"></path><path d="M87.13,360s-.82-2.53,1.57-7.23,4-7.46,4-7.46,3.67,5.25,1.53,9.86a65.43,65.43,0,0,1-5.63,9.38Z" style="fill:#3DABB3"></path><path d="M94.48,381.19s.3-2.64,4.43-5.92,6.75-5.12,6.75-5.12,1.15,6.3-2.71,9.6a65.05,65.05,0,0,1-9,6.2Z" style="fill:#3DABB3"></path><path d="M93.39,374.67S92.94,372,88.63,369s-7-4.73-7-4.73-.79,6.35,3.25,9.43a66.21,66.21,0,0,0,9.36,5.68Z" style="fill:#3DABB3"></path><path d="M93.33,388.92s.23-2.65-3.17-6.68-5.6-6.35-5.6-6.35-2.38,5.94.76,9.95a65.44,65.44,0,0,0,7.61,7.85Z" style="fill:#3DABB3"></path><path d="M91.91,402.31h0a.25.25,0,0,1-.21-.29c0-.16,2.35-16.65,2.32-22.53,0-3.39-1.45-6.29-3.11-9.65a59.61,59.61,0,0,1-3.77-9c-1.32-4.29-1.31-8.75-1.3-13.06s0-8.18-1.28-11.39a47.64,47.64,0,0,0-4.59-8.27,50.19,50.19,0,0,1-5.25-9.72,74.5,74.5,0,0,1-2.42-8,.25.25,0,0,1,.18-.31.25.25,0,0,1,.3.18,75,75,0,0,0,2.41,7.94,49.76,49.76,0,0,0,5.2,9.62A47.91,47.91,0,0,1,85,336.19c1.34,3.3,1.33,7.33,1.32,11.58s0,8.69,1.28,12.91a59.12,59.12,0,0,0,3.74,8.94C93,373,94.45,376,94.48,379.48c0,5.93-2.3,22.45-2.33,22.61A.24.24,0,0,1,91.91,402.31Z" style="fill:#263238"></path><path d="M74.29,317.36a.27.27,0,0,1-.12,0L69.69,315a.24.24,0,0,1-.1-.33.24.24,0,0,1,.33-.11l4.49,2.35a.25.25,0,0,1-.12.47Z" style="fill:#263238"></path><path d="M73.5,313.9l-.08,0a.25.25,0,0,1-.16-.32l1.15-3.23a.26.26,0,0,1,.32-.15.25.25,0,0,1,.15.32l-1.14,3.23A.27.27,0,0,1,73.5,313.9Z" style="fill:#263238"></path><path d="M84.48,336.26a.2.2,0,0,1-.11,0s-3.79-1.93-7.58-3.8a.26.26,0,0,1-.11-.34A.25.25,0,0,1,77,332c3.8,1.87,7.55,3.79,7.58,3.81a.23.23,0,0,1,.11.33A.24.24,0,0,1,84.48,336.26Z" style="fill:#263238"></path><path d="M81.93,331.38h-.07a.26.26,0,0,1-.17-.32A53.85,53.85,0,0,1,86.05,321a.25.25,0,0,1,.34-.09.26.26,0,0,1,.08.35,53.61,53.61,0,0,0-4.3,10A.26.26,0,0,1,81.93,331.38Z" style="fill:#263238"></path><path d="M86.69,358.9a.25.25,0,0,1-.2-.1,41.86,41.86,0,0,0-8.66-8.19.25.25,0,0,1-.07-.35.25.25,0,0,1,.35-.06,42.23,42.23,0,0,1,8.78,8.3.24.24,0,0,1,0,.35A.2.2,0,0,1,86.69,358.9Z" style="fill:#263238"></path><path d="M88,362.47h-.06a.25.25,0,0,1-.19-.3,46.65,46.65,0,0,1,2.43-7.48c1.42-3.16,1.64-3.6,1.65-3.61a.25.25,0,0,1,.34-.11.25.25,0,0,1,.11.33s-.24.47-1.65,3.6a46.93,46.93,0,0,0-2.39,7.38A.24.24,0,0,1,88,362.47Z" style="fill:#263238"></path><path d="M94,384.27a.27.27,0,0,1-.16-.06.25.25,0,0,1,0-.35,38.94,38.94,0,0,1,4.86-5.05,25.7,25.7,0,0,0,3.1-2.69.25.25,0,1,1,.36.34A24.84,24.84,0,0,1,99,379.21a39.87,39.87,0,0,0-4.77,5A.28.28,0,0,1,94,384.27Z" style="fill:#263238"></path><path d="M94.23,379.74a.27.27,0,0,1-.22-.12,43.36,43.36,0,0,0-4-5.48,39.8,39.8,0,0,0-4.7-4.36.27.27,0,0,1,0-.36.24.24,0,0,1,.35,0,38.83,38.83,0,0,1,4.77,4.42,44.62,44.62,0,0,1,4.06,5.56.26.26,0,0,1-.08.34A.33.33,0,0,1,94.23,379.74Z" style="fill:#263238"></path><path d="M92.93,393.94a.25.25,0,0,1-.25-.23,11.25,11.25,0,0,0-2-5.5c-1.46-1.93-3.11-4.33-4.2-5.92l-.7-1a.25.25,0,1,1,.41-.29l.7,1c1.09,1.58,2.73,4,4.19,5.9a11.55,11.55,0,0,1,2.05,5.77.24.24,0,0,1-.24.26Z" style="fill:#263238"></path><path d="M112,450.6H86.21a2.43,2.43,0,0,1-2.44-2.43l-3.83-49h38.3l-3.83,49A2.43,2.43,0,0,1,112,450.6Z" style="fill:#263238"></path></g><g id="freepik--Picture--inject-87"><g style="opacity:0.30000000000000004"><path d="M156.4,190H42.69a.5.5,0,0,1-.5-.5V38.09a.5.5,0,0,1,.5-.5H156.4a.5.5,0,0,1,.5.5V189.45A.5.5,0,0,1,156.4,190ZM43.19,189H155.9V38.59H43.19Z"></path><path d="M152.69,185H46.4a.5.5,0,0,1-.5-.5V43a.5.5,0,0,1,.5-.5H152.69a.5.5,0,0,1,.5.5V184.51A.5.5,0,0,1,152.69,185ZM46.9,184H152.19V43.53H46.9Z"></path><path d="M46.4,147.43a.5.5,0,0,1-.44-.27.51.51,0,0,1,.21-.68c11-5.7,37.39-22.18,44.46-51.93C96.47,70,104.75,53.46,116.7,42.66a.49.49,0,0,1,.7,0,.5.5,0,0,1,0,.71c-11.79,10.66-20,27-25.77,51.38-7.16,30.15-33.83,46.82-45,52.59A.46.46,0,0,1,46.4,147.43Z"></path><path d="M98.11,185a.51.51,0,0,1-.48-.35C90.05,160,81.17,114.15,106.9,83.46,120.67,67,136,54.56,152.47,46.38a.5.5,0,0,1,.67.23.51.51,0,0,1-.23.67c-16.34,8.11-31.56,20.5-45.24,36.82-25.43,30.33-16.6,75.84-9.08,100.27a.51.51,0,0,1-.33.63Z"></path><path d="M46.4,109.14a.5.5,0,0,1-.32-.88c6.09-5.22,13.72-15,15.49-32.12,1.68-16.26-3.69-26.81-8.5-32.8a.5.5,0,0,1,.78-.62c4.92,6.13,10.43,16.93,8.71,33.52C60.76,93.67,53,103.69,46.73,109A.52.52,0,0,1,46.4,109.14Z"></path><path d="M139.83,185a.51.51,0,0,1-.42-.23c-4.22-6.44-9.59-9-15.28-11.69-5.2-2.47-10.58-5-14.94-10.8a22.15,22.15,0,0,1-3.55-20c3.22-11.53,14.13-22,29.18-28a42.73,42.73,0,0,0,17.49-12.51.5.5,0,0,1,.7-.07.52.52,0,0,1,.07.71,43.69,43.69,0,0,1-17.89,12.8c-14.76,5.87-25.45,16.09-28.59,27.32A21.18,21.18,0,0,0,110,161.7c4.21,5.57,9.48,8.08,14.57,10.5,5.56,2.64,11.31,5.37,15.69,12a.51.51,0,0,1-.14.7A.57.57,0,0,1,139.83,185Z"></path><path d="M76,185h0a.52.52,0,0,1-.49-.51c.26-12-1.71-20.51-5.86-25.15a4.93,4.93,0,0,0-4.2-1.83c-4.58.34-11,6.64-18.59,18.2a.5.5,0,0,1-.69.15.51.51,0,0,1-.15-.7c7.87-12,14.38-18.27,19.36-18.65a5.94,5.94,0,0,1,5,2.17c4.32,4.83,6.38,13.52,6.11,25.83A.5.5,0,0,1,76,185Z"></path><path d="M80.09,74.67a2.75,2.75,0,0,1-.85-.14c-4.83-1.64-6.15-18-6.42-31.49a.5.5,0,0,1,.49-.51h0a.5.5,0,0,1,.5.49c.36,18.31,2.45,29.45,5.74,30.56,1.07.36,2.38-.42,3.89-2.32,6.1-7.66,10.89-19.67,13.83-28.39a.49.49,0,0,1,.63-.31.5.5,0,0,1,.32.63c-3,8.8-7.81,20.92-14,28.69C82.76,73.73,81.37,74.67,80.09,74.67Z"></path><path d="M128.05,95.14c-1.6,0-2.6-.44-3-1.33-1.71-3.53,7.49-14,27.35-31.13a.49.49,0,0,1,.7,0,.51.51,0,0,1,0,.71c-18.38,15.85-28.51,27-27.1,29.93.39.82,2.07,1,4.7.48,7.4-1.45,14.71-5.74,21.72-12.75a.5.5,0,0,1,.71,0,.51.51,0,0,1,0,.71c-7.15,7.16-14.64,11.55-22.24,13A14.43,14.43,0,0,1,128.05,95.14Z"></path></g></g><g id="freepik--Window--inject-87"><g style="opacity:0.30000000000000004"><path d="M462.15,302.29H325.74a.5.5,0,0,1-.5-.5V99.16A68.72,68.72,0,0,1,454.11,66a.5.5,0,0,1-.88.48,67.71,67.71,0,0,0-127,32.72V301.29H461.65V99.16a67.16,67.16,0,0,0-5.87-27.62.51.51,0,0,1,.25-.66.49.49,0,0,1,.66.26,68,68,0,0,1,6,28V301.79A.5.5,0,0,1,462.15,302.29Z"></path><path d="M446.75,301.56a.5.5,0,0,1-.5-.5V101.36a52.33,52.33,0,0,0-72.66-48.19.5.5,0,0,1-.66-.27.49.49,0,0,1,.27-.65,53.33,53.33,0,0,1,74.05,49.11v199.7A.5.5,0,0,1,446.75,301.56Z"></path><path d="M341.14,301.56a.5.5,0,0,1-.5-.5V101.36A53.07,53.07,0,0,1,370,53.72a.49.49,0,0,1,.67.22.5.5,0,0,1-.22.67,52.08,52.08,0,0,0-28.83,46.75v199.7A.5.5,0,0,1,341.14,301.56Z"></path><path d="M394,301.93a.5.5,0,0,1-.5-.5V112.74a.5.5,0,0,1,.5-.5.5.5,0,0,1,.5.5V301.43A.51.51,0,0,1,394,301.93Z"></path><path d="M394,107.32a.5.5,0,0,1-.5-.5V31a.5.5,0,0,1,.5-.5.5.5,0,0,1,.5.5v75.86A.5.5,0,0,1,394,107.32Z"></path><path d="M461.24,91.78H326.47a.5.5,0,0,1,0-1H461.24a.5.5,0,0,1,0,1Z"></path><path d="M461.24,134.16H347.55a.5.5,0,0,1-.5-.5.51.51,0,0,1,.5-.5H461.24a.51.51,0,0,1,.5.5A.5.5,0,0,1,461.24,134.16Z"></path><path d="M343.12,134.16H326.47a.5.5,0,0,1-.5-.5.51.51,0,0,1,.5-.5h16.65a.51.51,0,0,1,.5.5A.5.5,0,0,1,343.12,134.16Z"></path><path d="M461.24,176.7H326.47a.5.5,0,0,1,0-1H461.24a.5.5,0,0,1,0,1Z"></path><path d="M461.24,219.24H440.41a.51.51,0,0,1-.5-.5.5.5,0,0,1,.5-.5h20.83a.5.5,0,0,1,.5.5A.51.51,0,0,1,461.24,219.24Z"></path><path d="M434.12,219.24H326.47a.51.51,0,0,1-.5-.5.5.5,0,0,1,.5-.5H434.12a.5.5,0,0,1,.5.5A.5.5,0,0,1,434.12,219.24Z"></path><path d="M461.24,261.77H374.19a.5.5,0,0,1-.5-.5.5.5,0,0,1,.5-.5h87.05a.51.51,0,0,1,.5.5A.5.5,0,0,1,461.24,261.77Z"></path><path d="M368.64,261.77H326.47a.5.5,0,0,1-.5-.5.51.51,0,0,1,.5-.5h42.17a.5.5,0,0,1,.5.5A.5.5,0,0,1,368.64,261.77Z"></path><path d="M356.71,63.87a.46.46,0,0,1-.33-.13L344.16,52.61a.49.49,0,0,1,0-.7.51.51,0,0,1,.71,0L357.05,63a.5.5,0,0,1,0,.71A.47.47,0,0,1,356.71,63.87Z"></path><path d="M430.67,63.87a.49.49,0,0,1-.37-.16.5.5,0,0,1,0-.71l12.22-11.13a.5.5,0,0,1,.71,0,.49.49,0,0,1,0,.7L431,63.74A.46.46,0,0,1,430.67,63.87Z"></path></g></g><g id="freepik--speech-bubble--inject-87"><path d="M335.26,68.49h-40.4A10.5,10.5,0,0,0,284.36,79V97.58a10.52,10.52,0,0,0,8.38,10.3L284,119.16l20.77-11.07h30.47a10.51,10.51,0,0,0,10.51-10.51V79A10.5,10.5,0,0,0,335.26,68.49Z" style="fill:#263238"></path><path d="M284,119.66a.52.52,0,0,1-.38-.17.5.5,0,0,1,0-.63l8.25-10.68a11.05,11.05,0,0,1-8-10.6V79a11,11,0,0,1,11-11h40.4a11,11,0,0,1,11,11V97.58a11,11,0,0,1-11,11H304.91l-20.65,11A.53.53,0,0,1,284,119.66ZM294.86,69a10,10,0,0,0-10,10V97.58a10,10,0,0,0,8,9.81.49.49,0,0,1,.37.31.52.52,0,0,1-.07.48l-7.3,9.45,18.71-10a.48.48,0,0,1,.24-.06h30.47a10,10,0,0,0,10-10V79a10,10,0,0,0-10-10Z" style="fill:#263238"></path><path d="M334.08,64.15h-40.4a10.51,10.51,0,0,0-10.51,10.51V93.24a10.51,10.51,0,0,0,8.39,10.3l-8.72,11.29,20.76-11.08h30.48a10.51,10.51,0,0,0,10.51-10.51V74.66A10.51,10.51,0,0,0,334.08,64.15Z" style="fill:#fff"></path><path d="M282.84,115.33a.51.51,0,0,1-.4-.81l8.25-10.68a11.05,11.05,0,0,1-8-10.6V74.66a11,11,0,0,1,11-11h40.4a11,11,0,0,1,11,11V93.24a11,11,0,0,1-11,11H303.73l-20.66,11A.46.46,0,0,1,282.84,115.33Zm10.84-50.68a10,10,0,0,0-10,10V93.24a10,10,0,0,0,8,9.81.49.49,0,0,1,.37.31.51.51,0,0,1-.07.48l-7.3,9.45,18.71-10a.46.46,0,0,1,.23-.06h30.48a10,10,0,0,0,10-10V74.66a10,10,0,0,0-10-10Z" style="fill:#263238"></path><path d="M305.32,84.79a2.52,2.52,0,1,1-2.51-2.52A2.51,2.51,0,0,1,305.32,84.79Z" style="fill:#263238"></path><path d="M302.81,87.81a3,3,0,1,1,3-3A3,3,0,0,1,302.81,87.81Zm0-5a2,2,0,1,0,2,2A2,2,0,0,0,302.81,82.77Z" style="fill:#263238"></path><path d="M316.9,84.79a2.52,2.52,0,1,1-2.52-2.52A2.52,2.52,0,0,1,316.9,84.79Z" style="fill:#263238"></path><path d="M314.38,87.81a3,3,0,1,1,3-3A3,3,0,0,1,314.38,87.81Zm0-5a2,2,0,1,0,2,2A2,2,0,0,0,314.38,82.77Z" style="fill:#263238"></path><path d="M328.48,84.79A2.52,2.52,0,1,1,326,82.27,2.52,2.52,0,0,1,328.48,84.79Z" style="fill:#263238"></path><path d="M326,87.81a3,3,0,1,1,3-3A3,3,0,0,1,326,87.81Zm0-5a2,2,0,1,0,2,2A2,2,0,0,0,326,82.77Z" style="fill:#263238"></path></g><g id="freepik--Character--inject-87"><path d="M206.93,366.11l-4.76,80.39s-12.61,7-16.81,12.6-1.12,10.36,5,8.68,21.57-13.16,22.69-18.2,20.45-81.23,20.45-81.23Z" style="fill:#fff"></path><path d="M188,468.62a5,5,0,0,1-4.33-2c-1.37-2-.89-4.94,1.27-7.82,3.95-5.26,14.9-11.58,16.72-12.61l4.75-80.11a.53.53,0,0,1,.17-.35.5.5,0,0,1,.37-.12l26.61,2.24a.52.52,0,0,1,.36.21.47.47,0,0,1,.08.41c-.19.77-19.34,76.24-20.44,81.21-1.19,5.35-17.05,16.95-23.05,18.58A9.16,9.16,0,0,1,188,468.62Zm19.38-102-4.74,79.87a.48.48,0,0,1-.25.41c-.13.07-12.56,7-16.65,12.47-1.87,2.49-2.34,5-1.25,6.65s3.17,2,5.76,1.25c6.23-1.7,21.3-13.18,22.33-17.83s18.52-73.64,20.31-80.67Zm-5.23,79.85h0Z" style="fill:#263238"></path><path d="M196.56,454.34a5.07,5.07,0,0,0-4-1.69,35.23,35.23,0,0,0-7.17,6.45c-4.2,5.6-1.12,10.36,5,8.68s21.57-13.16,22.69-18.2a2.09,2.09,0,0,1,0-.21,65.55,65.55,0,0,1-13.5,8.61S198.24,456.3,196.56,454.34Z" style="fill:#3DABB3"></path><path d="M188,468.62a5,5,0,0,1-4.33-2c-1.37-2-.89-4.94,1.27-7.82a34.92,34.92,0,0,1,7.27-6.56.47.47,0,0,1,.28-.09,5.62,5.62,0,0,1,4.43,1.86h0c1.26,1.47,2.36,2.78,2.84,3.35a65,65,0,0,0,13-8.37.5.5,0,0,1,.58-.05.49.49,0,0,1,.23.54l0,.2c-1.19,5.35-17.05,16.95-23.05,18.58A9.22,9.22,0,0,1,188,468.62Zm4.67-15.48a34,34,0,0,0-6.93,6.26c-1.87,2.49-2.34,5-1.25,6.65s3.16,2,5.76,1.25c5.6-1.53,18.38-11,21.62-16.25a68.53,68.53,0,0,1-12,7.38.49.49,0,0,1-.59-.13s-1.4-1.68-3.08-3.64A4.75,4.75,0,0,0,192.69,453.14Z" style="fill:#263238"></path><path d="M285.91,366.11l4.76,80.39s12.61,7,16.81,12.6,1.12,10.36-5,8.68-21.57-13.16-22.69-18.2-20.45-81.23-20.45-81.23Z" style="fill:#fff"></path><path d="M304.82,468.62a9.16,9.16,0,0,1-2.51-.36c-6-1.63-21.86-13.23-23.05-18.58-1.1-5-20.25-80.44-20.44-81.21a.47.47,0,0,1,.08-.41.5.5,0,0,1,.36-.21l26.61-2.24a.49.49,0,0,1,.37.12.53.53,0,0,1,.17.35l4.75,80.11c1.81,1,12.77,7.35,16.72,12.61,2.16,2.88,2.64,5.81,1.27,7.82A5,5,0,0,1,304.82,468.62ZM259.93,368.8c1.78,7,19.25,75.91,20.31,80.67s16.1,16.13,22.33,17.83c2.59.71,4.75.24,5.76-1.25s.62-4.16-1.25-6.65C303,454,290.56,447,290.43,446.93a.49.49,0,0,1-.26-.41l-4.73-79.87Z" style="fill:#263238"></path><path d="M296.27,454.34a5.1,5.1,0,0,1,4-1.69,35.5,35.5,0,0,1,7.17,6.45c4.2,5.6,1.12,10.36-5,8.68s-21.57-13.16-22.69-18.2a2.09,2.09,0,0,0-.05-.21A65.62,65.62,0,0,0,293.19,458S294.59,456.3,296.27,454.34Z" style="fill:#3DABB3"></path><path d="M304.82,468.62a9.16,9.16,0,0,1-2.51-.36c-6-1.63-21.86-13.23-23.05-18.58l-.05-.2a.51.51,0,0,1,.24-.54.5.5,0,0,1,.58.05,65,65,0,0,0,13,8.37c.47-.57,1.58-1.88,2.84-3.35a5.62,5.62,0,0,1,4.43-1.86.44.44,0,0,1,.27.09,34.76,34.76,0,0,1,7.28,6.56c2.16,2.88,2.64,5.81,1.27,7.82A5,5,0,0,1,304.82,468.62ZM281,451.07c3.32,5.32,16,14.71,21.6,16.23,2.59.71,4.75.24,5.76-1.25s.62-4.16-1.25-6.65a33.83,33.83,0,0,0-6.94-6.26,4.5,4.5,0,0,0-3.49,1.52h0c-1.67,2-3.07,3.64-3.07,3.64a.51.51,0,0,1-.6.13A69.92,69.92,0,0,1,281,451.07Zm15.31,3.27Z" style="fill:#263238"></path><path d="M210,251.09s-6.27,22.57-8.55,59,1.93,59.48,1.93,59.48A120.65,120.65,0,0,0,243,376a250.4,250.4,0,0,0,50.21-5.32s6.21-38,.69-76.71-8.16-46.49-8.16-46.49H209.84Z" style="fill:#263238"></path><path d="M242.61,376.53A122.58,122.58,0,0,1,203.19,370a.52.52,0,0,1-.31-.38c0-.23-4.19-23.56-1.94-59.6,2.19-35,8.14-57.49,8.55-59l-.15-3.5a.49.49,0,0,1,.13-.36.52.52,0,0,1,.37-.16H285.7a.51.51,0,0,1,.48.34c.11.32,2.7,8.31,8.17,46.58s-.62,76.48-.68,76.86a.5.5,0,0,1-.38.41A253.91,253.91,0,0,1,243,376.53Zm-38.79-7.37a122.19,122.19,0,0,0,38.79,6.37H243a254.47,254.47,0,0,0,49.78-5.23c.59-3.84,5.81-40,.63-76.23-4.85-34-7.49-44.18-8-46.06h-75l.13,3.06a.39.39,0,0,1,0,.15c-.06.23-6.28,23-8.53,58.86C199.83,343.87,203.36,366.42,203.82,369.16Z" style="fill:#263238"></path><path d="M209.84,243.78s-2.79,9.85-.86,11.77,10.38,5.61,40.57,6.47,39.29-4.75,39.94-9.25a16.84,16.84,0,0,0-1.08-8.35Z" style="fill:#3DABB3"></path><path d="M255.54,262.61c-1.9,0-3.89,0-6-.09-31.86-.91-39.22-4.93-40.9-6.61-2.08-2.08.43-11.23.73-12.27a.5.5,0,0,1,.48-.36h0l78.58.64a.5.5,0,0,1,.45.3,17.18,17.18,0,0,1,1.11,8.62C289.64,255.22,286.09,262.61,255.54,262.61Zm-45.32-18.33c-1,3.74-2.1,9.71-.89,10.92s7.85,5.4,40.23,6.32c28,.8,38.75-4,39.43-8.82a16.7,16.7,0,0,0-.91-7.78Z" style="fill:#263238"></path><path d="M261.48,79.13s0-3.52-6.51-6.51-14.24-3.34-26.38,10-4.92,27.26-6.15,33.07-17.31,13.84-17.94,26.9,17.06,21.11,33.24,20,13.89-3.69,22.33-3.16,17.76.88,20.93-2.11,5.1-11.79,2.46-21.11-7.48-18.15-8.71-25.89,1-21.87-4.77-27.14S261.48,79.13,261.48,79.13Z" style="fill:#263238"></path><path d="M234.79,163.26c-10.24,0-20.16-3.41-25.87-9A15.14,15.14,0,0,1,204,142.59c.4-8.32,6.81-14.54,12-19.55,3-2.89,5.55-5.39,6-7.44.32-1.51,0-3.73-.33-6.29-.94-6.83-2.34-17.15,6.6-27,12.72-14,20.77-13,27-10.14,5.21,2.39,6.43,5.16,6.71,6.36,1.15-.12,3.89.22,8.43,4.35,4.19,3.81,4.33,11.92,4.45,19.07a64.21,64.21,0,0,0,.47,8.36c.69,4.36,2.55,9.09,4.52,14.09a123.63,123.63,0,0,1,4.18,11.75c2.68,9.45.78,18.41-2.6,21.6S269,160.56,260,160a18.19,18.19,0,0,0-7.72.86c-2.53.73-6,1.74-14.55,2.3C236.78,163.23,235.78,163.26,234.79,163.26ZM248,71.44c-4.88,0-11,2.64-19,11.54-8.63,9.51-7.31,19.15-6.35,26.19.36,2.66.67,5,.32,6.64-.5,2.34-3.18,4.94-6.28,8-5,4.88-11.27,11-11.65,18.88-.2,4,1.36,7.68,4.62,10.89,6,5.87,17.26,9.34,28.08,8.63,8.45-.55,11.85-1.54,14.34-2.26a19.28,19.28,0,0,1,8.06-.9c8.38.52,17.57.84,20.56-2s4.86-11.63,2.32-20.6c-1.13-4-2.66-7.88-4.15-11.65-2-5.06-3.87-9.84-4.58-14.3a64.9,64.9,0,0,1-.48-8.5c-.12-7-.25-14.83-4.13-18.35-5.4-4.92-7.95-4-8-4a.5.5,0,0,1-.46,0,.53.53,0,0,1-.22-.41c0-.06-.17-3.28-6.22-6.06A16,16,0,0,0,248,71.44Zm14,7.69h0Z" style="fill:#263238"></path><path d="M237.53,145.82s-20,2.65-24.52,8.42-2.89,24.52-2.89,24.52l7.21,37.74s-10.43,22.78-8.58,29.39,22.74,10.32,45.75,9.79,35.17-3.71,35.7-11.37S281,208.57,281,208.57s14.18-44.72,3.84-56c-5.62-6.14-28.6-6.73-28.6-6.73Z" style="fill:#3DABB3"></path><path d="M250.36,256.22c-20.13,0-40.18-3.35-42.09-10.19-1.82-6.51,7.57-27.46,8.54-29.59l-7.18-37.59c-.08-.82-1.65-19.07,3-24.92s24-8.49,24.85-8.6h18.82c1,0,23.27.66,29,6.9,10.21,11.15-2.62,52.95-3.68,56.34.85,2.49,9.64,28.31,9.12,35.78-.52,7.62-11.68,11.27-36.18,11.84C253.13,256.21,251.74,256.22,250.36,256.22Zm-12.8-109.9c-.9.13-19.86,2.79-24.16,8.23s-2.8,24-2.78,24.16l7.2,37.7a.52.52,0,0,1,0,.3c-.11.22-10.34,22.69-8.56,29,1.66,5.92,21.12,10,45.25,9.42,23.87-.55,34.73-3.92,35.22-10.91.51-7.48-9-35.26-9.13-35.54a.5.5,0,0,1,0-.32c.14-.44,14-44.56,4-55.52-5.42-5.92-28-6.56-28.26-6.57Z" style="fill:#263238"></path><path d="M276.73,148.69s9.54,1.36,13.62,4.67,6.23,10.12,6.82,17.71,1.55,22.78,1.55,24.53,5.45,17.52,1.56,30.56-17.71-14-17.71-16.35-1.56-7.2-1.56-7.2l1.48-21.34" style="fill:#3DABB3"></path><path d="M297.12,230.2a4.22,4.22,0,0,1-.49,0c-5.94-.87-14.56-18.68-14.56-20.35,0-2.23-1.52-7-1.54-7.05a1.23,1.23,0,0,1,0-.19L282,181.23a.51.51,0,0,1,.54-.46.5.5,0,0,1,.46.53c-.55,7.95-1.39,20.06-1.47,21.25.22.7,1.55,5,1.55,7.26,0,1.71,8.61,18.62,13.7,19.36.5.07,2,.29,3-3.15,3.09-10.36.19-22.57-1.05-27.78a17.9,17.9,0,0,1-.53-2.64c0-1.68-.94-16.55-1.55-24.49-.64-8.25-3-14.41-6.63-17.36-3.93-3.18-13.29-4.55-13.38-4.57a.49.49,0,0,1-.43-.56.51.51,0,0,1,.57-.43c.39.06,9.72,1.42,13.87,4.78,3.85,3.12,6.34,9.54,7,18.07.57,7.33,1.56,22.74,1.56,24.56a21.28,21.28,0,0,0,.51,2.4c1.25,5.3,4.2,17.69,1,28.3C300,228.89,298.76,230.2,297.12,230.2Z" style="fill:#263238"></path><polygon points="238.53 129.81 238.4 139.05 259.97 139.05 259.83 129.94 238.53 129.81" style="fill:#fff"></polygon><path d="M260,139.55H238.4a.51.51,0,0,1-.36-.15.52.52,0,0,1-.14-.36l.13-9.24a.51.51,0,0,1,.5-.49h0l21.29.13a.49.49,0,0,1,.5.49l.14,9.11a.49.49,0,0,1-.15.36A.47.47,0,0,1,260,139.55Zm-21.06-1h20.55l-.12-8.11L239,130.31Z" style="fill:#263238"></path><path d="M261.57,135.16A22.51,22.51,0,0,1,251,138c-10.11.15-14-4.13-14.36-2.65s-2.41,10.31-2.41,11.92,5.75,5,14.86,5.23c10,.23,13.13-2,14.47-2.82s1.07-1.34.54-4.29C264,144.39,262.51,134.63,261.57,135.16Z" style="fill:#3DABB3"></path><path d="M250.49,153l-1.39,0c-8.91-.2-15.35-3.56-15.35-5.73,0-1.73,2.06-10.72,2.43-12.05a.86.86,0,0,1,.46-.59c.5-.25,1.15,0,2.32.51a28,28,0,0,0,12,2.36,22.17,22.17,0,0,0,10.3-2.71h0a.63.63,0,0,1,.61,0c.53.25,1.16,1.22,2.56,9.86.05.33.09.57.11.69l.15.81c.42,2.25.58,3.09-.92,4l-.21.13C262.24,151,259.1,153,250.49,153Zm-13.36-17.48c-.46,1.73-2.38,10.24-2.38,11.73,0,1.06,5.25,4.52,14.37,4.73,9.39.21,12.61-1.77,14-2.61l.23-.14c.87-.52.88-.63.45-2.94l-.15-.83-.12-.71c-1-6.44-1.64-8.41-1.94-9A23.23,23.23,0,0,1,251,138.45,28.65,28.65,0,0,1,238.58,136,8.85,8.85,0,0,0,237.13,135.49Z" style="fill:#263238"></path><path d="M258,90.55s-2.75,5.38-5.72,7.33-.12-4.58-.12-4.58-1.6,5.72-5.95,7.21-9.27-.11-10.87,1-3.78,5-3.55,7,2.4,15,3.78,18.65,5.49,7.33,13.27,8.13a15,15,0,0,0,14.54-7.44c1.95-3.32,3.09-22.66,3.21-25.07s-3.09-3.43-5.5-5.61S258,90.55,258,90.55Z" style="fill:#fff"></path><path d="M250.51,135.9a16.38,16.38,0,0,1-1.69-.09c-6.85-.71-12-3.87-13.69-8.45-1.45-3.85-3.61-17.09-3.81-18.78-.25-2.12,2-6.18,3.76-7.44.88-.63,2.37-.57,4.25-.5a18.71,18.71,0,0,0,6.75-.6c2.53-.87,4.1-3.32,4.92-5.05.23-.69.5-1.35.74-1.89a.49.49,0,0,1,.62-.27.5.5,0,0,1,.32.61,16.88,16.88,0,0,1-.74,1.92,5.5,5.5,0,0,0-.46,2.4,5.22,5.22,0,0,0,.56-.3c2.82-1.85,5.52-7.08,5.55-7.13a.5.5,0,0,1,.52-.27.51.51,0,0,1,.42.42s.69,4.31,2.93,6.34a20.16,20.16,0,0,0,2.34,1.76c1.75,1.2,3.41,2.33,3.32,4.25,0,.21-1.12,21.61-3.28,25.29A15.52,15.52,0,0,1,250.51,135.9Zm-12.8-34.3a3.9,3.9,0,0,0-2.05.35c-1.46,1-3.55,4.79-3.34,6.52.24,2.07,2.41,15,3.75,18.54,1.58,4.22,6.39,7.14,12.86,7.8A14.47,14.47,0,0,0,263,127.62c1.75-3,2.94-20.63,3.14-24.84.06-1.36-1.24-2.25-2.88-3.37a21.57,21.57,0,0,1-2.45-1.85,11.86,11.86,0,0,1-3-5.6c-1,1.74-3,4.9-5.24,6.34-.28.18-1.14.75-1.75.23a1.14,1.14,0,0,1-.34-.72A8.71,8.71,0,0,1,246.4,101a19.5,19.5,0,0,1-7.1.65C238.73,101.62,238.19,101.6,237.71,101.6Z" style="fill:#263238"></path><path d="M232.16,110s-2.86-3.32-3.89.12,5.38,10,5.38,10Z" style="fill:#fff"></path><path d="M233.65,120.59a.55.55,0,0,1-.36-.15c-.27-.28-6.6-6.78-5.5-10.46.33-1.08.87-1.71,1.62-1.87,1.45-.31,3,1.38,3.13,1.58a.58.58,0,0,1,.12.25L234.15,120a.49.49,0,0,1-.28.52A.43.43,0,0,1,233.65,120.59Zm-3.87-11.52-.16,0c-.46.1-.72.7-.87,1.18-.64,2.14,2.19,6,4.17,8.28l-1.23-8.31A3.49,3.49,0,0,0,229.78,109.07Z" style="fill:#263238"></path><path d="M266.16,108.07s2.52-3.09,3.66.68-4.23,8.82-4.23,8.82Z" style="fill:#fff"></path><path d="M265.59,118.07a.54.54,0,0,1-.22,0,.51.51,0,0,1-.28-.48l.57-9.5a.57.57,0,0,1,.11-.29c.14-.16,1.35-1.6,2.7-1.34.82.16,1.44.9,1.83,2.2,1.22,4-4.14,9.11-4.37,9.32A.51.51,0,0,1,265.59,118.07Zm1.06-9.8-.48,8c1.43-1.59,3.93-4.83,3.17-7.34-.19-.63-.53-1.4-1.06-1.51S267,107.92,266.65,108.27Z" style="fill:#263238"></path><path d="M249.9,120.41a5.26,5.26,0,0,1-3.19-1.21.5.5,0,1,1,.67-.74,3.71,3.71,0,0,0,5.06-.12.49.49,0,0,1,.7,0,.51.51,0,0,1,0,.71A4.78,4.78,0,0,1,249.9,120.41Z" style="fill:#263238"></path><path d="M241.71,113.1a5.68,5.68,0,0,1-3.1-1,.5.5,0,0,1-.09-.7.51.51,0,0,1,.7-.1,4.29,4.29,0,0,0,5.33-.33.51.51,0,0,1,.71.07.5.5,0,0,1-.08.7A5.37,5.37,0,0,1,241.71,113.1Z" style="fill:#263238"></path><path d="M257.16,113.1a5.63,5.63,0,0,1-3.09-1,.5.5,0,0,1-.1-.7.51.51,0,0,1,.7-.1A4.31,4.31,0,0,0,260,111a.49.49,0,0,1,.7.07.5.5,0,0,1-.07.7A5.39,5.39,0,0,1,257.16,113.1Z" style="fill:#263238"></path><path d="M246,123.52s2.64,2.75,7.9,0c0,0-.81,3.4-3.66,4C247,128.21,246,123.52,246,123.52Z" style="fill:#263238"></path><path d="M237.08,108.83a1,1,0,0,1-.52-.15,1,1,0,0,1-.33-1.36c.09-.16,2.38-3.79,8.61-2.52a1,1,0,1,1-.4,2c-4.78-1-6.44,1.5-6.51,1.61A1,1,0,0,1,237.08,108.83Z" style="fill:#263238"></path><path d="M261.7,108.84a1,1,0,0,1-.85-.47c-.09-.13-1.75-2.58-6.51-1.61a1,1,0,0,1-.4-2c6.22-1.27,8.52,2.36,8.61,2.52a1,1,0,0,1-.34,1.37A1,1,0,0,1,261.7,108.84Z" style="fill:#263238"></path><path d="M301.35,221s-1.9,14-3.93,14.5-9.63-3.52-16.95-11.25-14.23-23.86-14.23-23.86l-7.73-5.83s6.24-8.13,7.32-10.84a28.64,28.64,0,0,1,3.26-5.56s1.89,6.24,3.38,11.66a40.23,40.23,0,0,0,2.17,6.64l23.58,18.95" style="fill:#3DABB3"></path><path d="M297,236c-3,0-10.39-4.59-16.9-11.46-7-7.34-13.62-22.36-14.28-23.88l-7.62-5.75a.45.45,0,0,1-.19-.33.48.48,0,0,1,.09-.37c.07-.08,6.21-8.11,7.26-10.73a28.21,28.21,0,0,1,3.32-5.67.5.5,0,0,1,.87.15c0,.07,1.92,6.31,3.4,11.68a46.45,46.45,0,0,0,2.08,6.45L298.53,215a.51.51,0,0,1,.08.71.49.49,0,0,1-.7.07l-23.58-18.95a.44.44,0,0,1-.12-.15c0-.05-.73-1.33-2.22-6.75-1.13-4.1-2.5-8.71-3.09-10.67a25.07,25.07,0,0,0-2.6,4.62c-1,2.43-5.8,8.87-7.09,10.57l7.33,5.52a.53.53,0,0,1,.16.2c.07.16,7,16.14,14.13,23.72,7.59,8,14.86,11.53,16.46,11.11.93-.25,2.56-6.7,3.56-14.09a.51.51,0,0,1,.57-.43.5.5,0,0,1,.42.56c-.45,3.36-2.11,14.34-4.29,14.92A1.81,1.81,0,0,1,297,236Z" style="fill:#263238"></path><path d="M274.64,196.44a40.23,40.23,0,0,1-2.17-6.64c-1.49-5.42-3.38-11.66-3.38-11.66a28.64,28.64,0,0,0-3.26,5.56c-1.08,2.71-7.32,10.84-7.32,10.84l7.73,5.83a137.09,137.09,0,0,0,7.24,14.15,94.56,94.56,0,0,0,10.09-10.89Z" style="fill:#fff"></path><path d="M273.48,215h-.08a.52.52,0,0,1-.35-.24,140.37,140.37,0,0,1-7.22-14.09l-7.62-5.75a.45.45,0,0,1-.19-.33.48.48,0,0,1,.09-.37c.07-.08,6.21-8.11,7.26-10.73a28.21,28.21,0,0,1,3.32-5.67.5.5,0,0,1,.87.15c0,.07,1.92,6.31,3.4,11.68a46.45,46.45,0,0,0,2.08,6.45l8.84,7.13a.48.48,0,0,1,.18.33.46.46,0,0,1-.11.37,95.2,95.2,0,0,1-10.14,11A.52.52,0,0,1,273.48,215Zm-14.27-20.57,7.33,5.52a.53.53,0,0,1,.16.2,137.18,137.18,0,0,0,6.9,13.58,99.09,99.09,0,0,0,9.26-10l-8.53-6.88a.44.44,0,0,1-.12-.15c0-.05-.73-1.33-2.22-6.75-1.13-4.1-2.5-8.71-3.09-10.67a25.07,25.07,0,0,0-2.6,4.62C265.33,186.31,260.5,192.75,259.21,194.45Z" style="fill:#263238"></path><path d="M222.38,149.19a31.85,31.85,0,0,0-18.51,6.49c-8.65,6.73-2.22,52.92-1.5,59.41s-.29,14.84,8,17.76c3,1,46.88-35.1,46.88-35.1s3.94-3.19,5.82-3.42,4.65-4.09,5.54-5.31a39.28,39.28,0,0,0,3.77-9c.33-2-1.55-1.55-2.11-.77s-2.43,5.64-2.43,5.64,2.43-8.19,2.32-11.4-1.22-2.44-1.22-2.44-.11-3.43-.88-3.76-1.55.22-1.89,1.1-2.21,4-2.21,4,2-5.09,1.66-6.2-2.21.11-2.77,1.22a47.34,47.34,0,0,1-4.54,5.64c-.66.67-2.1,1.78-2.1,1.78s1.55-2.88,2.32-4.65-.88-3.22-1.88-1.55-2.43,4.76-2.88,5.53-3.87,5.43-4.2,7.64-.78,6-.89,7.2-1,1.77-1.55,3-26.8,14-26.8,14L220,184.19" style="fill:#3DABB3"></path><path d="M210.39,233.35a.64.64,0,0,1-.2,0c-7.25-2.56-7.68-9.13-8.05-14.93-.08-1.13-.15-2.2-.26-3.24-.06-.51-.15-1.27-.27-2.23-4.2-34.49-3.56-53.35,1.95-57.64a32,32,0,0,1,18.83-6.59.49.49,0,0,1,.49.51.51.51,0,0,1-.51.49,31.56,31.56,0,0,0-18.19,6.38c-5.14,4-5.67,23.09-1.58,56.73.12,1,.21,1.73.27,2.24.12,1.06.19,2.14.26,3.28.38,5.76.76,11.72,7.4,14.05h0c2.76,0,29.83-21.42,46.35-35,.42-.34,4.12-3.29,6.09-3.52,1.07-.13,2.79-1.81,5.11-5l.08-.1a39.44,39.44,0,0,0,3.67-8.76c0-.17.1-.72-.15-.82a1.09,1.09,0,0,0-1.05.42,54.81,54.81,0,0,0-2.38,5.53.51.51,0,0,1-.63.3.5.5,0,0,1-.31-.62c0-.08,2.41-8.15,2.3-11.25-.06-1.81-.44-2-.45-2a.5.5,0,0,1-.5,0,.51.51,0,0,1-.27-.43,7.93,7.93,0,0,0-.6-3.34.65.65,0,0,0-.51,0,1.41,1.41,0,0,0-.69.82,45.83,45.83,0,0,1-2.25,4.07.5.5,0,0,1-.9-.44c.93-2.38,1.83-5.3,1.65-5.88,0-.08-.11-.09-.27,0a3.06,3.06,0,0,0-1.57,1.35,47.93,47.93,0,0,1-4.63,5.78,27.1,27.1,0,0,1-2.16,1.81.5.5,0,0,1-.62,0,.51.51,0,0,1-.12-.62s1.55-2.88,2.31-4.61c.34-.8.06-1.39-.24-1.55s-.64.26-.76.45c-.62,1-1.44,2.69-2,3.89-.36.74-.67,1.35-.83,1.64s-.32.5-.62.95c-1.07,1.58-3.28,4.87-3.53,6.52-.34,2.29-.78,6-.88,7.16a3.89,3.89,0,0,1-.91,2,6.78,6.78,0,0,0-.69,1.13c-.56,1.24-19.09,10.34-27,14.19a.51.51,0,0,1-.48,0,.54.54,0,0,1-.24-.42l-.33-21.77a.5.5,0,0,1,.49-.51.47.47,0,0,1,.51.49l.32,21c9.86-4.8,25-12.4,25.88-13.42a7.05,7.05,0,0,1,.76-1.24,3,3,0,0,0,.72-1.54c.12-1.3.57-5.05.89-7.22.28-1.87,2.5-5.16,3.69-6.93.28-.42.49-.73.58-.89s.45-.87.81-1.58c.64-1.29,1.43-2.89,2.07-4a1.56,1.56,0,0,1,2.08-.83,2.15,2.15,0,0,1,.69,2.84c-.32.73-.77,1.65-1.19,2.47l.16-.15a48.52,48.52,0,0,0,4.45-5.52,3.45,3.45,0,0,1,2.75-1.92,1,1,0,0,1,.94.78,3.82,3.82,0,0,1-.09,1.6,2.09,2.09,0,0,1,.93-.8,1.58,1.58,0,0,1,1.31,0c.82.35,1.08,2.25,1.17,3.66a1.13,1.13,0,0,1,.24.08c.63.32.94,1.24,1,2.9a25.29,25.29,0,0,1-.76,5.44,2.05,2.05,0,0,1,2.22-.71c.37.15,1,.6.75,1.9a38.75,38.75,0,0,1-3.85,9.18l-.08.11c-1.75,2.4-4,5.2-5.81,5.41-1.42.17-4.5,2.44-5.57,3.31C247.39,206.5,214.44,233.34,210.39,233.35Z" style="fill:#263238"></path><path d="M206.83,212.63a.5.5,0,0,1-.21-1l2.39-1.09a.5.5,0,0,1,.42.91l-2.4,1.09A.46.46,0,0,1,206.83,212.63Z" style="fill:#263238"></path><path d="M211.66,210.42a.49.49,0,0,1-.45-.29.5.5,0,0,1,.24-.67l8.67-4a.49.49,0,0,1,.66.24.52.52,0,0,1-.25.67l-8.66,4A.54.54,0,0,1,211.66,210.42Z" style="fill:#263238"></path><path d="M263.06,194.33c1.89-.22,4.65-4.09,5.54-5.31a39.28,39.28,0,0,0,3.77-9c.33-2-1.55-1.55-2.11-.77s-2.43,5.64-2.43,5.64,2.43-8.19,2.32-11.4-1.22-2.44-1.22-2.44-.11-3.43-.88-3.76-1.55.22-1.89,1.1-2.21,4-2.21,4,2-5.09,1.66-6.2-2.21.11-2.77,1.22a47.34,47.34,0,0,1-4.54,5.64c-.66.67-2.1,1.78-2.1,1.78s1.55-2.88,2.32-4.65-.88-3.22-1.88-1.55-2.43,4.76-2.88,5.53-3.87,5.43-4.2,7.64-.78,6-.89,7.2-1,1.77-1.55,3c-.35.76-10.64,6-18.36,9.81a22.62,22.62,0,0,0,7.16,12.65c11-8.49,21.32-16.72,21.32-16.72S261.18,194.56,263.06,194.33Z" style="fill:#fff"></path><path d="M235.92,215a.49.49,0,0,1-.32-.12,23.29,23.29,0,0,1-7.33-12.93.49.49,0,0,1,.27-.55c15.61-7.75,17.9-9.31,18.15-9.62a7.05,7.05,0,0,1,.76-1.24,3,3,0,0,0,.72-1.54c.12-1.3.57-5.05.89-7.22.28-1.87,2.5-5.16,3.69-6.93.28-.42.49-.73.58-.89s.45-.86.8-1.58c.64-1.29,1.44-2.89,2.08-4a1.56,1.56,0,0,1,2.08-.83,2.15,2.15,0,0,1,.69,2.84c-.32.73-.77,1.65-1.19,2.47l.16-.15a48.52,48.52,0,0,0,4.45-5.52,3.47,3.47,0,0,1,2.75-1.92,1,1,0,0,1,.94.79,3.78,3.78,0,0,1-.09,1.59,2.09,2.09,0,0,1,.93-.8,1.58,1.58,0,0,1,1.31,0c.82.35,1.08,2.25,1.17,3.66a1.13,1.13,0,0,1,.24.08c.63.32.94,1.24,1,2.9a25.29,25.29,0,0,1-.76,5.44,2.05,2.05,0,0,1,2.22-.71c.37.15,1,.6.75,1.9a38.75,38.75,0,0,1-3.85,9.18l-.08.11c-1.75,2.4-4,5.2-5.81,5.41-1.42.17-4.5,2.44-5.57,3.31-.1.08-10.46,8.33-21.32,16.73A.5.5,0,0,1,235.92,215Zm-6.59-12.88a22.34,22.34,0,0,0,6.61,11.74c10.74-8.31,20.88-16.39,21-16.47.41-.34,4.11-3.29,6.08-3.52,1.07-.13,2.79-1.81,5.11-5l.08-.1a39.44,39.44,0,0,0,3.67-8.76c0-.17.1-.72-.15-.82a1.09,1.09,0,0,0-1.05.42,54.81,54.81,0,0,0-2.38,5.53.51.51,0,0,1-.63.3.5.5,0,0,1-.31-.62c0-.08,2.41-8.15,2.3-11.25-.06-1.81-.44-2-.45-2a.5.5,0,0,1-.5,0,.51.51,0,0,1-.27-.43,7.93,7.93,0,0,0-.6-3.34.65.65,0,0,0-.51,0,1.41,1.41,0,0,0-.69.82,45.83,45.83,0,0,1-2.25,4.07.5.5,0,0,1-.9-.44c.93-2.37,1.83-5.3,1.65-5.88,0-.08-.11-.09-.27,0a3.06,3.06,0,0,0-1.57,1.35,47.16,47.16,0,0,1-4.63,5.78,27.1,27.1,0,0,1-2.16,1.81.48.48,0,0,1-.62,0,.51.51,0,0,1-.12-.62s1.55-2.88,2.31-4.62c.34-.79.06-1.38-.24-1.54s-.64.26-.76.45c-.62,1-1.44,2.69-2,3.9-.37.73-.67,1.34-.83,1.63s-.32.5-.62.95c-1.07,1.58-3.28,4.87-3.53,6.52-.34,2.29-.78,6-.88,7.16a3.89,3.89,0,0,1-.91,2,6.78,6.78,0,0,0-.69,1.13C247.42,192.56,247.1,193.27,229.33,202.09Z" style="fill:#263238"></path><path d="M264,172.41S260.46,178.2,259,180" style="fill:#fff"></path><path d="M259,180.5a.5.5,0,0,1-.39-.82c1.4-1.75,4.86-7.47,4.89-7.53a.5.5,0,0,1,.69-.17.51.51,0,0,1,.17.69c-.15.24-3.53,5.84-5,7.64A.51.51,0,0,1,259,180.5Z" style="fill:#263238"></path><path d="M268.93,171.08s-3.32,8.8-6.07,12.15" style="fill:#fff"></path><path d="M262.86,183.73a.52.52,0,0,1-.32-.11.5.5,0,0,1-.07-.71c2.67-3.25,6-11.92,6-12a.51.51,0,0,1,.65-.29.5.5,0,0,1,.29.65c-.14.36-3.38,8.91-6.16,12.29A.49.49,0,0,1,262.86,183.73Z" style="fill:#263238"></path><line x1="267.83" y1="184.92" x2="265.97" y2="188.74" style="fill:#fff"></line><path d="M266,189.24a.59.59,0,0,1-.22-.05.5.5,0,0,1-.23-.67l1.86-3.82a.5.5,0,0,1,.9.44L266.42,189A.49.49,0,0,1,266,189.24Z" style="fill:#263238"></path></g></svg>
