<svg xmlns="http://www.w3.org/2000/svg" viewBox="0 0 500 500"><g id="freepik--background-simple--inject-116"><path d="M457.31,257.28C474,150.86,385.17,43.59,268.6,30.27c-1.45-.17-2.9-.32-4.36-.47-81.45-8.09-155.9,54.13-177.18,101.58s-77,92.6-56.35,180.56S107.45,446.75,239,460.62,394.77,436.88,429.69,354.7A420.16,420.16,0,0,0,457.31,257.28Z" style="fill:#92E3A9"></path><path d="M457.31,257.28C474,150.86,385.17,43.59,268.6,30.27c-1.45-.17-2.9-.32-4.36-.47-81.45-8.09-155.9,54.13-177.18,101.58s-77,92.6-56.35,180.56S107.45,446.75,239,460.62,394.77,436.88,429.69,354.7A420.16,420.16,0,0,0,457.31,257.28Z" style="fill:#fff;opacity:0.7000000000000001"></path></g><g id="freepik--Plants--inject-116"><path d="M450.86,406.64C447.47,406.16,441,402,441,402s4.06-3.41,4.34-3.59c3.29-2.11,10.89-4.25,14.27-1.46a5.17,5.17,0,0,1,.11,7.7C457.54,406.79,453.75,407.06,450.86,406.64Z" style="fill:#92E3A9"></path><path d="M387.7,374.14c-.08,0,1.5-5.08,1.64-5.39,1.58-3.57,6.74-9.55,11.09-9.09a5.18,5.18,0,0,1,4.34,6.37c-.63,3-3.64,5.34-6.28,6.59C395.39,374.08,387.7,374.14,387.7,374.14Z" style="fill:#92E3A9"></path><path d="M381.37,458.86c-1.49,1.86-2.85,3.61-4.08,5.22h-3.08c1.55-2,3.36-4.24,5.4-6.67,1.19-1.42,2.49-2.91,3.83-4.43a53,53,0,0,1-3.41-4.7c-2.76.92-8.38.67-9.1.64-.22,1.81-.4,3.57-.56,5.23-.35,3.77-.56,7.12-.7,9.93h-2.51c.21-2.87.5-6.3.95-10.16.21-1.84.46-3.8.75-5.81-.71-.22-6.48-2-8.59-3.89-1.92-1.7-3.9-4.4-3.69-7.11a4.56,4.56,0,0,1,5.23-4.3c3.79.68,6.67,7,7.13,10.4,0,.2.07,2.41.08,3.8.12-.82.23-1.62.36-2.46.26-1.67.56-3.33.88-5.12.18-.85.37-1.72.56-2.59s.45-1.77.68-2.67c.57-2.06,1.24-4.12,2-6.19-1.46-.22-6.64-1.1-8.81-2.5s-4.51-3.76-4.71-6.47a4.54,4.54,0,0,1,4.52-5c3.84.1,7.65,5.9,8.61,9.2.06.2.49,2.64.7,4,.45-1.24.89-2.47,1.38-3.71,1.42-3.57,3-7.14,4.5-10.71.47-1.09.93-2.18,1.39-3.28-.52-.07-6.7-1-9.13-2.55-2.16-1.39-4.52-3.76-4.72-6.47a4.55,4.55,0,0,1,4.52-5c3.85.1,7.65,5.9,8.62,9.2.07.25.68,3.76.79,4.66,1-2.41,2-4.82,2.87-7.23a79.84,79.84,0,0,0,2.95-10c-.24,0-6.69-1-9.18-2.56-2.15-1.39-4.51-3.76-4.72-6.47a4.55,4.55,0,0,1,4.52-5c3.85.1,7.65,5.9,8.62,9.2.06.21.53,2.89.72,4.17h.22A57.6,57.6,0,0,0,388.24,381c.06-1.92,0-3.76-.08-5.55-1.22-.05-6.79-.33-9.19-1.53s-4.9-3.24-5.4-5.91a4.55,4.55,0,0,1,3.94-5.51c3.83-.32,8.25,5,9.57,8.2.08.17.61,2,1,3.34-.06-.8-.1-1.64-.16-2.41-.25-2.9-.65-5.54-1-7.87-.23-1.33-.45-2.52-.68-3.64-1.17-.67-5.86-3.44-7.41-5.56s-2.85-5.14-2.07-7.74a4.56,4.56,0,0,1,6-3.07c3.55,1.48,5,8.26,4.72,11.68,0,.3-.95,4.88-1,4.85l-.07,0c.24,1.07.48,2.21.72,3.47.43,2.34.89,5,1.2,7.88a81.1,81.1,0,0,1,.54,9.42,59.35,59.35,0,0,1-.89,10.51l0,.13c.53-1,2.09-3.74,2.23-3.94,2-2.77,7.58-6.93,11.23-5.72a4.56,4.56,0,0,1,2.54,6.28c-1.11,2.48-4.14,3.9-6.64,4.48-2.82.65-9-.6-9.45-.7A82.41,82.41,0,0,1,385,402.39c-.67,2-1.41,4-2.17,5.93.48-.85.92-1.6,1-1.7,2-2.78,7.58-6.94,11.23-5.73a4.56,4.56,0,0,1,2.54,6.28c-1.11,2.48-4.14,3.91-6.64,4.48s-7.79-.37-9.18-.65l-.9,2.26c-1.45,3.61-2.92,7.2-4.26,10.76-.47,1.26-.88,2.52-1.3,3.77.43-.75.79-1.38.86-1.47,2-2.77,7.57-6.94,11.23-5.73a4.54,4.54,0,0,1,2.53,6.28c-1.11,2.48-4.13,3.91-6.63,4.48s-7.29-.28-8.94-.6c-.39,1.3-.79,2.6-1.11,3.87-.2.88-.45,1.71-.61,2.6s-.33,1.74-.5,2.61c-.26,1.67-.53,3.39-.75,5-.15,1.14-.28,2.23-.41,3.32.45-1.26,1.39-3.7,1.49-3.89a17.72,17.72,0,0,1,6.22-6.4,5.81,5.81,0,0,1,.54-.85,4.56,4.56,0,0,1,6.74-.7c2.78,2.66,1.7,9.51.2,12.6-.08.18-1.26,2.05-2,3.22l1.66-1.85c1.14-1.25,2.31-2.47,3.56-3.79l1.9-1.85c.62-.64,1.35-1.23,2-1.85,1.61-1.41,3.31-2.75,5.06-4.07-1.1-1-4.93-4.59-6-6.95s-1.69-5.63-.37-8a4.56,4.56,0,0,1,6.56-1.71c3.15,2.2,3.12,9.14,2.11,12.42-.07.21-1.06,2.48-1.63,3.72,1.06-.79,2.11-1.57,3.2-2.33,3.16-2.2,6.42-4.32,9.67-6.45l3-2c-.39-.35-5-4.52-6.2-7.16-1-2.35-1.7-5.63-.37-8a4.55,4.55,0,0,1,6.55-1.72c3.15,2.21,3.13,9.15,2.11,12.43-.07.25-1.5,3.52-1.91,4.33,2.17-1.45,4.33-2.92,6.39-4.45a80.6,80.6,0,0,0,8-6.69c-.19-.16-5.06-4.49-6.25-7.2-1-2.35-1.69-5.62-.37-8a4.55,4.55,0,0,1,6.56-1.72c3.15,2.21,3.12,9.14,2.11,12.42-.07.22-1.16,2.71-1.7,3.89l.18.12a58.42,58.42,0,0,0,6.66-8.06c1.11-1.57,2.08-3.13,3-4.67-1-.72-5.48-4-6.82-6.34s-2.3-5.41-1.24-7.91a4.55,4.55,0,0,1,6.32-2.43c3.38,1.85,4.11,8.75,3.47,12.12,0,.18-.6,2-1,3.33.4-.7.83-1.42,1.2-2.1,1.39-2.55,2.52-5,3.49-7.12.55-1.23,1-2.36,1.44-3.41-.6-1.21-3-6.1-3.11-8.73s.45-5.86,2.55-7.59a4.55,4.55,0,0,1,6.73.76c2.14,3.2-.39,9.66-2.51,12.35-.19.24-3.48,3.55-3.52,3.49a.34.34,0,0,1,0-.08c-.39,1-.82,2.12-1.32,3.3-.93,2.18-2,4.64-3.35,7.23a81.68,81.68,0,0,1-4.74,8.15,58.74,58.74,0,0,1-6.54,8.28l-.1.09c1-.54,3.81-2,4-2.05,3.22-1.19,10.15-1.6,12.53,1.42a4.55,4.55,0,0,1-1.35,6.64c-2.29,1.45-5.6,1-8,.08-2.71-1-7.14-5.45-7.5-5.8a80.59,80.59,0,0,1-8.07,7.1c-1.65,1.28-3.35,2.52-5.08,3.74.87-.44,1.65-.83,1.77-.87,3.22-1.2,10.15-1.61,12.52,1.42A4.54,4.54,0,0,1,430,434.7c-2.3,1.46-5.61,1-8,.08s-6.3-4.61-7.31-5.61l-2,1.39c-3.2,2.21-6.41,4.39-9.49,6.63-1.08.79-2.12,1.61-3.16,2.42.77-.39,1.42-.71,1.53-.75,3.22-1.2,10.14-1.61,12.52,1.41a4.55,4.55,0,0,1-1.35,6.64c-2.29,1.46-5.6,1-8,.08s-5.92-4.26-7.13-5.43c-1,.86-2.09,1.73-3.06,2.61-.65.62-1.32,1.18-1.94,1.83l-1.85,1.9c-1.14,1.25-2.32,2.54-3.4,3.78-.76.87-1.46,1.7-2.18,2.54,1.07-.8,3.2-2.32,3.4-2.42,3-1.67,9.78-3.13,12.59-.5a4.55,4.55,0,0,1-.33,6.77c-2,1.78-5.39,1.81-7.9,1.29-2.76-.58-7.64-4.12-8.25-4.57C383.55,456.18,382.42,457.55,381.37,458.86Z" style="fill:#92E3A9"></path><path d="M296.34,422.54c-2.45-.35-7.11-3.39-7.11-3.39s2.93-2.46,3.13-2.59c2.38-1.53,7.88-3.07,10.32-1.06a3.74,3.74,0,0,1,.08,5.57C301.17,422.65,298.43,422.84,296.34,422.54Z" style="fill:#92E3A9"></path><path d="M250.66,399c-.06,0,1.09-3.67,1.19-3.89,1.14-2.59,4.87-6.91,8-6.58a3.75,3.75,0,0,1,3.14,4.61c-.46,2.18-2.64,3.86-4.55,4.76C256.22,399,250.66,399,250.66,399Z" style="fill:#92E3A9"></path><path d="M246.09,460.3c-1.09,1.35-2.07,2.62-3,3.78h-2.23c1.12-1.43,2.42-3.06,3.9-4.82.86-1,1.8-2.11,2.77-3.21a35.71,35.71,0,0,1-2.47-3.4c-2,.67-6.06.49-6.58.46-.15,1.31-.29,2.59-.4,3.79-.25,2.73-.41,5.15-.51,7.18h-1.81c.15-2.08.36-4.55.68-7.35.15-1.33.34-2.74.54-4.2-.51-.16-4.68-1.46-6.21-2.81s-2.82-3.19-2.66-5.14a3.29,3.29,0,0,1,3.78-3.12c2.74.5,4.82,5.06,5.15,7.52,0,.15.06,1.75.06,2.76.09-.6.17-1.17.26-1.78.19-1.21.41-2.41.64-3.7.13-.62.26-1.25.4-1.88s.33-1.28.5-1.93c.41-1.49.9-3,1.42-4.48-1.06-.16-4.8-.79-6.37-1.8s-3.26-2.72-3.41-4.68a3.29,3.29,0,0,1,3.27-3.65c2.78.07,5.53,4.27,6.23,6.65,0,.15.35,1.92.5,2.89.33-.89.64-1.79,1-2.68,1-2.59,2.15-5.17,3.26-7.75.34-.79.67-1.58,1-2.37-.38-.05-4.85-.71-6.6-1.84-1.56-1-3.27-2.72-3.41-4.68a3.29,3.29,0,0,1,3.27-3.65c2.78.07,5.53,4.27,6.23,6.65,0,.18.49,2.72.57,3.38.73-1.75,1.45-3.49,2.08-5.24a58.85,58.85,0,0,0,2.13-7.21c-.17,0-4.84-.69-6.64-1.85-1.56-1-3.26-2.72-3.41-4.68a3.28,3.28,0,0,1,3.27-3.64c2.78.07,5.53,4.26,6.23,6.65.05.15.38,2.09.52,3h.16a42.53,42.53,0,0,0,.81-7.52c0-1.39,0-2.72-.07-4-.88,0-4.91-.24-6.64-1.11s-3.55-2.34-3.91-4.27a3.3,3.3,0,0,1,2.85-4c2.77-.23,6,3.64,6.93,5.93.05.13.44,1.45.71,2.42,0-.58-.07-1.18-.12-1.74-.18-2.1-.47-4-.74-5.7-.16-1-.32-1.82-.48-2.63-.85-.48-4.24-2.48-5.36-4s-2.07-3.71-1.5-5.59A3.3,3.3,0,0,1,247.1,377c2.56,1.07,3.62,6,3.41,8.45,0,.22-.68,3.53-.73,3.51l-.05,0c.17.77.35,1.6.52,2.51.31,1.69.64,3.6.86,5.7a57.53,57.53,0,0,1,.4,6.81,42.88,42.88,0,0,1-.65,7.6.29.29,0,0,1,0,.09c.38-.72,1.51-2.7,1.62-2.84,1.46-2,5.48-5,8.12-4.14a3.28,3.28,0,0,1,1.83,4.54c-.8,1.79-3,2.82-4.8,3.24-2,.47-6.48-.43-6.83-.51a59.06,59.06,0,0,1-2,7.51c-.49,1.43-1,2.86-1.57,4.28.35-.61.66-1.16.72-1.23,1.46-2,5.48-5,8.12-4.14a3.29,3.29,0,0,1,1.83,4.54c-.8,1.79-3,2.83-4.8,3.24s-5.64-.27-6.64-.47l-.65,1.64c-1.05,2.61-2.11,5.2-3.08,7.78-.34.91-.64,1.82-.94,2.72.31-.54.57-1,.62-1.06,1.47-2,5.48-5,8.12-4.14a3.3,3.3,0,0,1,1.84,4.54c-.81,1.79-3,2.83-4.8,3.24s-5.27-.2-6.47-.43c-.28.94-.57,1.87-.8,2.8-.14.63-.33,1.23-.44,1.87s-.24,1.27-.36,1.89c-.19,1.21-.39,2.45-.54,3.64-.12.82-.21,1.6-.3,2.39.32-.9,1-2.67,1.08-2.81a12.64,12.64,0,0,1,4.5-4.62,3.6,3.6,0,0,1,.39-.62,3.29,3.29,0,0,1,4.87-.51c2,1.92,1.23,6.88.15,9.12-.07.13-.92,1.48-1.47,2.33.4-.45.78-.89,1.2-1.35.82-.9,1.66-1.78,2.57-2.73l1.37-1.35c.45-.45,1-.88,1.48-1.33,1.16-1,2.4-2,3.66-2.95-.79-.72-3.57-3.31-4.32-5s-1.22-4.07-.26-5.79a3.3,3.3,0,0,1,4.74-1.24c2.28,1.6,2.26,6.62,1.52,9,0,.15-.76,1.79-1.17,2.69.76-.57,1.52-1.14,2.31-1.69,2.29-1.59,4.65-3.12,7-4.66l2.15-1.43c-.29-.25-3.65-3.27-4.49-5.18-.75-1.7-1.23-4.07-.27-5.78a3.29,3.29,0,0,1,4.74-1.24c2.28,1.59,2.26,6.61,1.53,9-.06.18-1.09,2.55-1.38,3.14,1.57-1,3.12-2.11,4.62-3.22a58.3,58.3,0,0,0,5.75-4.84c-.13-.12-3.66-3.25-4.52-5.21-.74-1.69-1.22-4.07-.26-5.78a3.29,3.29,0,0,1,4.74-1.24c2.28,1.6,2.26,6.61,1.53,9-.05.15-.84,1.95-1.23,2.8l.13.09a42.72,42.72,0,0,0,4.82-5.82c.8-1.14,1.5-2.27,2.16-3.39-.72-.51-4-2.91-4.93-4.58s-1.67-3.91-.9-5.72a3.29,3.29,0,0,1,4.57-1.76c2.44,1.34,3,6.33,2.51,8.77,0,.13-.44,1.45-.75,2.41.29-.51.6-1,.87-1.52,1-1.85,1.82-3.6,2.53-5.16.39-.88.73-1.7,1-2.46-.44-.87-2.17-4.41-2.25-6.31s.33-4.24,1.84-5.49a3.3,3.3,0,0,1,4.87.55c1.55,2.31-.28,7-1.82,8.93-.13.17-2.52,2.57-2.54,2.52l0-.05c-.28.74-.59,1.53-.95,2.39-.67,1.57-1.45,3.35-2.42,5.22a57.1,57.1,0,0,1-3.43,5.9,42.8,42.8,0,0,1-4.73,6l-.07.06c.72-.39,2.75-1.42,2.92-1.48,2.32-.86,7.33-1.16,9.05,1a3.3,3.3,0,0,1-1,4.81c-1.66,1.05-4.05.7-5.79.05-2-.73-5.17-3.94-5.43-4.19a58.2,58.2,0,0,1-5.84,5.13c-1.19.93-2.42,1.83-3.67,2.71l1.28-.63c2.33-.86,7.34-1.16,9.06,1a3.3,3.3,0,0,1-1,4.81c-1.65,1.05-4,.7-5.79.05s-4.55-3.34-5.28-4.05l-1.44,1c-2.32,1.59-4.64,3.17-6.86,4.79-.79.57-1.54,1.17-2.3,1.75l1.11-.54c2.33-.86,7.34-1.16,9.06,1a3.3,3.3,0,0,1-1,4.81c-1.66,1.05-4.06.7-5.8.05s-4.28-3.08-5.15-3.93c-.75.63-1.51,1.25-2.21,1.89-.47.45-1,.85-1.4,1.33l-1.35,1.37c-.82.91-1.67,1.83-2.45,2.74-.55.62-1.06,1.22-1.58,1.83.78-.58,2.32-1.67,2.46-1.75,2.17-1.21,7.07-2.26,9.11-.36a3.29,3.29,0,0,1-.24,4.89c-1.48,1.29-3.9,1.32-5.72.94-2-.42-5.52-3-6-3.31C247.66,458.37,246.84,459.36,246.09,460.3Z" style="fill:#92E3A9"></path><path d="M48.33,403.81c3.56-.51,10.32-4.91,10.32-4.91s-4.25-3.58-4.55-3.77c-3.45-2.21-11.42-4.45-15-1.53a5.43,5.43,0,0,0-.11,8.08C41.32,404,45.3,404.25,48.33,403.81Z" style="fill:#92E3A9"></path><path d="M114.61,369.7c.08,0-1.58-5.32-1.72-5.65-1.66-3.75-7.07-10-11.64-9.53a5.43,5.43,0,0,0-4.56,6.67c.66,3.18,3.83,5.61,6.6,6.92C106.54,369.65,114.6,369.7,114.61,369.7Z" style="fill:#92E3A9"></path><path d="M121.24,458.6c1.57,1.95,3,3.79,4.28,5.48h3.24c-1.63-2.08-3.53-4.45-5.67-7-1.25-1.49-2.61-3.05-4-4.65a52.51,52.51,0,0,0,3.59-4.93c2.88,1,8.78.71,9.55.67.22,1.9.41,3.75.57,5.5.37,3.95.6,7.46.75,10.41h2.62c-.21-3-.52-6.61-1-10.66-.22-1.93-.49-4-.78-6.1.74-.22,6.79-2.11,9-4.08,2-1.78,4.09-4.62,3.87-7.46a4.77,4.77,0,0,0-5.49-4.51c-4,.71-7,7.34-7.48,10.91,0,.21-.08,2.53-.08,4-.13-.86-.24-1.7-.38-2.58-.27-1.75-.59-3.5-.92-5.37-.2-.9-.39-1.81-.59-2.73s-.48-1.85-.72-2.79c-.59-2.17-1.3-4.33-2.07-6.5,1.54-.23,7-1.16,9.24-2.62s4.74-3.95,5-6.79A4.78,4.78,0,0,0,139,411.5c-4,.1-8,6.19-9,9.65-.06.21-.51,2.78-.73,4.19-.47-1.3-.93-2.59-1.45-3.89-1.49-3.75-3.12-7.49-4.72-11.24-.5-1.14-1-2.29-1.46-3.44.55-.08,7-1,9.58-2.67,2.26-1.46,4.74-4,5-6.79a4.78,4.78,0,0,0-4.74-5.3c-4,.11-8,6.2-9,9.66-.08.26-.72,3.95-.83,4.89-1.07-2.53-2.1-5.06-3-7.59a83.76,83.76,0,0,1-3.09-10.46c.25,0,7-1,9.63-2.68,2.26-1.46,4.74-3.95,5-6.79a4.78,4.78,0,0,0-4.74-5.3c-4,.11-8,6.2-9,9.66-.07.22-.56,3-.76,4.37h-.23A61.79,61.79,0,0,1,114,376.87c-.06-2,0-3.94.09-5.82,1.28-.05,7.13-.35,9.64-1.6s5.15-3.4,5.67-6.2a4.79,4.79,0,0,0-4.13-5.79c-4-.33-8.66,5.28-10,8.6-.07.18-.64,2.11-1,3.51.06-.84.1-1.72.17-2.53.25-3,.67-5.81,1.07-8.26.23-1.39.47-2.64.71-3.81,1.23-.71,6.15-3.61,7.77-5.84s3-5.39,2.17-8.12a4.78,4.78,0,0,0-6.33-3.22c-3.73,1.55-5.26,8.67-5,12.26,0,.31,1,5.12,1,5.08l.08,0c-.25,1.12-.51,2.32-.76,3.65-.45,2.44-.93,5.21-1.25,8.26a84.32,84.32,0,0,0-.57,9.88,62.57,62.57,0,0,0,.93,11l0,.12c-.55-1-2.19-3.91-2.34-4.12-2.13-2.91-8-7.28-11.78-6a4.77,4.77,0,0,0-2.66,6.59c1.16,2.6,4.33,4.1,7,4.7,3,.68,9.41-.63,9.92-.73a83.81,83.81,0,0,0,3,10.88c.7,2.08,1.47,4.15,2.27,6.22-.51-.89-1-1.68-1-1.79-2.13-2.9-7.95-7.27-11.78-6a4.77,4.77,0,0,0-2.66,6.59c1.16,2.6,4.33,4.09,7,4.7s8.18-.4,9.64-.68c.31.79.62,1.58.94,2.37,1.53,3.78,3.07,7.55,4.46,11.29.5,1.32.93,2.64,1.38,3.95-.45-.79-.84-1.45-.91-1.54-2.13-2.91-8-7.28-11.78-6a4.77,4.77,0,0,0-2.66,6.59c1.16,2.6,4.34,4.1,7,4.7s7.64-.3,9.38-.63c.41,1.36.83,2.72,1.16,4.06.21.92.48,1.79.64,2.72s.35,1.84.53,2.74c.27,1.75.56,3.56.78,5.28.17,1.19.3,2.33.44,3.47-.48-1.31-1.46-3.87-1.57-4.08a18.54,18.54,0,0,0-6.53-6.71,5.53,5.53,0,0,0-.56-.89,4.78,4.78,0,0,0-7.07-.74c-2.92,2.79-1.79,10-.22,13.23.1.19,1.33,2.15,2.14,3.38-.59-.65-1.14-1.29-1.75-1.95-1.19-1.31-2.41-2.59-3.73-4l-2-1.95c-.65-.67-1.42-1.28-2.14-1.94-1.69-1.47-3.48-2.89-5.31-4.27,1.15-1.05,5.17-4.81,6.26-7.29s1.78-5.9.39-8.39a4.78,4.78,0,0,0-6.88-1.8c-3.31,2.31-3.28,9.59-2.22,13,.07.21,1.11,2.6,1.71,3.9-1.11-.83-2.21-1.66-3.36-2.45-3.31-2.3-6.73-4.53-10.14-6.77-1-.68-2.07-1.37-3.11-2.07.41-.36,5.3-4.74,6.51-7.51,1.08-2.46,1.78-5.9.39-8.39a4.78,4.78,0,0,0-6.88-1.8c-3.3,2.31-3.28,9.59-2.21,13,.08.25,1.58,3.69,2,4.54-2.28-1.52-4.53-3.06-6.7-4.67a82.35,82.35,0,0,1-8.35-7c.19-.17,5.31-4.71,6.55-7.55,1.09-2.47,1.78-5.91.39-8.39a4.78,4.78,0,0,0-6.88-1.8c-3.3,2.31-3.28,9.59-2.21,13,.07.23,1.21,2.85,1.78,4.08l-.19.13a62.05,62.05,0,0,1-7-8.46c-1.16-1.65-2.18-3.29-3.14-4.9,1-.75,5.75-4.22,7.16-6.66s2.41-5.67,1.3-8.3a4.76,4.76,0,0,0-6.63-2.54c-3.54,1.94-4.32,9.18-3.64,12.72,0,.19.63,2.1,1.08,3.49-.42-.73-.87-1.49-1.26-2.2-1.46-2.68-2.64-5.22-3.66-7.48-.58-1.29-1.07-2.47-1.52-3.57.64-1.27,3.14-6.41,3.27-9.16s-.48-6.15-2.67-8a4.78,4.78,0,0,0-7.06.8c-2.25,3.35.4,10.13,2.63,13,.2.25,3.65,3.72,3.69,3.66a.34.34,0,0,0,0-.08c.41,1.08.87,2.22,1.39,3.46,1,2.29,2.1,4.86,3.51,7.58a85.22,85.22,0,0,0,5,8.56A62.18,62.18,0,0,0,69.56,414l.1.09c-1-.57-4-2.06-4.23-2.15-3.38-1.25-10.64-1.68-13.14,1.49a4.77,4.77,0,0,0,1.41,7c2.41,1.53,5.88,1,8.4.09,2.85-1.07,7.5-5.72,7.87-6.09a84,84,0,0,0,8.48,7.45c1.73,1.34,3.51,2.65,5.32,3.93l-1.85-.92c-3.38-1.25-10.65-1.68-13.14,1.49a4.78,4.78,0,0,0,1.41,7c2.41,1.52,5.88,1,8.4.08s6.61-4.84,7.67-5.89l2.09,1.46c3.36,2.31,6.72,4.61,10,7,1.14.82,2.23,1.68,3.33,2.53-.81-.41-1.5-.74-1.61-.79-3.38-1.25-10.64-1.68-13.14,1.49a4.78,4.78,0,0,0,1.42,7c2.4,1.52,5.88,1,8.4.08s6.21-4.47,7.47-5.7c1.1.91,2.19,1.81,3.21,2.74.69.65,1.39,1.23,2,1.92l2,2c1.19,1.31,2.43,2.65,3.56,4,.8.91,1.54,1.78,2.28,2.66-1.12-.83-3.36-2.43-3.56-2.54-3.15-1.75-10.26-3.28-13.21-.52a4.78,4.78,0,0,0,.34,7.1c2.15,1.87,5.66,1.91,8.29,1.36,2.9-.61,8-4.33,8.66-4.8C119,455.8,120.15,457.23,121.24,458.6Z" style="fill:#92E3A9"></path></g><g id="freepik--Floor--inject-116"><path d="M477,464.58H30a.5.5,0,0,1-.5-.5.5.5,0,0,1,.5-.5H477a.5.5,0,0,1,.5.5A.5.5,0,0,1,477,464.58Z" style="fill:#263238"></path></g><g id="freepik--mistery-box--inject-116"><polygon points="174.08 181.86 146.72 154.28 255.97 165.28 262.87 184.03 174.08 181.86" style="fill:#92E3A9"></polygon><path d="M262.87,184.53h0l-88.8-2.17a.48.48,0,0,1-.34-.14l-27.35-27.59a.5.5,0,0,1-.1-.57.5.5,0,0,1,.5-.28l109.25,11a.49.49,0,0,1,.42.32l6.9,18.76a.53.53,0,0,1-.06.46A.52.52,0,0,1,262.87,184.53Zm-88.58-3.16,87.86,2.14-6.54-17.77L148.06,154.91Z" style="fill:#263238"></path><polygon points="260.97 164.64 174.08 181.86 172.71 316.87 260.34 314.58 260.97 164.64" style="fill:#92E3A9"></polygon><path d="M172.71,317.37a.51.51,0,0,1-.35-.15.48.48,0,0,1-.15-.36l1.37-135a.5.5,0,0,1,.4-.49l86.89-17.22a.5.5,0,0,1,.42.11.52.52,0,0,1,.18.39l-.63,149.93a.49.49,0,0,1-.49.5l-87.63,2.29Zm1.86-135.1-1.35,134.08,86.62-2.25.63-148.85Z" style="fill:#263238"></path><polygon points="361.62 184.32 397.35 157.21 285.28 166.89 262.87 184.03 361.62 184.32" style="fill:#92E3A9"></polygon><path d="M361.62,184.82h0l-98.75-.29a.51.51,0,0,1-.48-.34.52.52,0,0,1,.17-.56L285,166.49a.52.52,0,0,1,.26-.1l112.06-9.68a.48.48,0,0,1,.51.32.5.5,0,0,1-.16.58l-35.73,27.11A.47.47,0,0,1,361.62,184.82Zm-97.28-1.29,97.11.29,34.22-26-110.2,9.51Z" style="fill:#263238"></path><polygon points="260.97 164.64 361.62 184.32 362.82 316.75 260.34 314.58 260.97 164.64" style="fill:#92E3A9"></polygon><path d="M362.82,317.25h0l-102.48-2.17a.5.5,0,0,1-.49-.5l.63-149.94a.49.49,0,0,1,.18-.38.48.48,0,0,1,.41-.11l100.65,19.68a.5.5,0,0,1,.41.49l1.2,132.43a.55.55,0,0,1-.15.36A.52.52,0,0,1,362.82,317.25Zm-102-3.16,101.47,2.15-1.19-131.51-99.65-19.48Z" style="fill:#263238"></path><polygon points="260.97 164.64 299.33 114.36 395.59 139.6 361.62 184.32 260.97 164.64" style="fill:#92E3A9"></polygon><path d="M361.62,184.82h-.1L260.87,165.13a.49.49,0,0,1-.37-.31.52.52,0,0,1,.07-.48l38.36-50.28a.5.5,0,0,1,.52-.18l96.26,25.24a.47.47,0,0,1,.35.32.5.5,0,0,1-.07.46l-34,44.72A.51.51,0,0,1,361.62,184.82Zm-99.77-20.51,99.56,19.46,33.33-43.87-95.22-25Z" style="fill:#263238"></path><polygon points="174.08 181.86 144.96 138.43 227.72 114.95 260.97 164.64 174.08 181.86" style="fill:#92E3A9"></polygon><path d="M174.08,182.36a.5.5,0,0,1-.42-.22l-29.11-43.43a.52.52,0,0,1-.06-.45.51.51,0,0,1,.33-.31l82.76-23.48a.51.51,0,0,1,.56.2l33.24,49.7a.49.49,0,0,1-.31.76l-86.9,17.22Zm-28.32-43.64,28.55,42.59,85.83-17-32.63-48.77Z" style="fill:#263238"></path><polygon points="172.71 316.87 276.27 319.43 361.42 315.88 260.34 314.58 172.71 316.87" style="fill:#263238"></polygon><path d="M276.29,319.93,172.7,317.37a.51.51,0,0,1-.49-.5.5.5,0,0,1,.49-.5l87.63-2.29,101.1,1.3a.51.51,0,0,1,.49.5.5.5,0,0,1-.48.5Zm-83.88-3.08,83.87,2.08,66.78-2.78-82.73-1.07Z" style="fill:#263238"></path><path d="M299.16,264.77V249.05a72.27,72.27,0,0,0,10.19-9.35,42.4,42.4,0,0,0,7.19-10.89,29.88,29.88,0,0,0,2.64-12.47c0-3.19-.64-5.61-1.9-7.27a7.21,7.21,0,0,0-5.72-2.67,6.41,6.41,0,0,0-7.24,6.91,12.32,12.32,0,0,0,.43,3.45c.28,1,.59,2.08.92,3.24l-16.83,3a47,47,0,0,1-1.35-5.41,29.2,29.2,0,0,1-.49-5.36q0-10.68,6.45-16.46t18.48-5.2q12.29.57,18.92,7.4t6.63,18.86A38,38,0,0,1,334.9,231a42.19,42.19,0,0,1-7.43,12.11A68.75,68.75,0,0,1,316,253.53v12Zm-.61,25.88V272.84l18.17.87v17.81Z" style="fill:#263238"></path><path d="M179.94,241.07q.41-24.93.82-49.87l3.86-.76q.94,15.65,1.9,31.28,1.35-16.09,2.67-32.18l3.73-.74-.15,50.7-2.66.33,0-34.23q-1.29,17.28-2.6,34.54l-2.28.28q-1-16.93-2.06-33.86-.28,17.08-.58,34.18Zm15.31-1.87.45-50.95,3.62-.71-.43,51.21Zm11-.65a2.78,2.78,0,0,1-2.75-1.41,12.89,12.89,0,0,1-1.63-5.07,62.93,62.93,0,0,1-.58-8.89l3.16-2c0,2.12.07,3.88.19,5.29a11.82,11.82,0,0,0,.55,3.11c.25.66.57,1,.95.92s.8-.53,1-1.41a15.46,15.46,0,0,0,.28-3,22.22,22.22,0,0,0-.5-5.4,29.32,29.32,0,0,0-1.39-4.22c-.73-1.75-1.09-2.63-1.82-4.37a26.2,26.2,0,0,1-1.58-5.2,35.86,35.86,0,0,1-.57-7.38,30.85,30.85,0,0,1,1.37-10q1.32-3.66,3.57-4.11a2.1,2.1,0,0,1,2.2.85A8,8,0,0,1,210,189.5a29.66,29.66,0,0,1,.63,4.57c.11,1.67.18,3.33.19,5l-3.12,1.9q0-2.37-.12-4.14a12,12,0,0,0-.37-2.74c-.19-.65-.49-.93-.89-.86s-.75.6-1,1.55a15,15,0,0,0-.33,3.09,18,18,0,0,0,.39,4.42,25.68,25.68,0,0,0,1.16,3.47l1.77,4.31a35.79,35.79,0,0,1,1.89,6.14,40.19,40.19,0,0,1,.74,8.85,37,37,0,0,1-.62,6.7,15.77,15.77,0,0,1-1.65,4.83A3.39,3.39,0,0,1,206.28,238.55Zm8.23-1.71q.17-22.2.32-44.42l-2.76.51c0-3.17,0-4.75.06-7.92l9.14-1.8-.05,8-2.72.51q-.15,22.32-.31,44.65Zm8-1q.18-26.48.35-53l7.79-1.54c0,3,0,4.52,0,7.54l-4.15.77c0,5.66-.06,8.48-.09,14.14l3.2-.54c0,3,0,4.56,0,7.6l-3.21.5-.1,16.69,4.2-.55c0,3,0,4.44,0,7.4Zm9.71-1.18.31-53.7,4.64-.91a3.66,3.66,0,0,1,3.09.63c.86.65,1.51,2,2,4a40.9,40.9,0,0,1,.65,8.61q0,3.36-.22,6a28.8,28.8,0,0,1-.68,4.61,10.09,10.09,0,0,1-1.36,3.27c.94,10.44,1.41,15.67,2.35,26.18l-3.75.46c-.77-9.72-1.16-14.57-1.93-24.24l-1.28.2c-.05,9.78-.08,14.67-.13,24.45Zm3.83-31.43,1.06-.18a1.92,1.92,0,0,0,1.4-1.1,8.1,8.1,0,0,0,.73-2.76,41.05,41.05,0,0,0,.23-4.42,26.62,26.62,0,0,0-.42-5.64c-.3-1.26-.86-1.81-1.68-1.66l-1.24.24C236.12,193.93,236.1,197,236.07,203.25Zm11.1,29.6c0-8.69.07-13,.11-21.72q-1.67-16.2-3.34-32.39l3.43-.68c.73,7.56,1.09,11.35,1.83,18.95.75-7.85,1.12-11.79,1.87-19.68l3.32-.65q-1.8,16.95-3.6,33.92c0,8.73,0,13.09-.09,21.82ZM199,304.31q.21-25.63.43-51.27l4.55-.46a4.06,4.06,0,0,1,2.17.35,4.24,4.24,0,0,1,1.75,1.88,12.57,12.57,0,0,1,1.14,4,44.47,44.47,0,0,1,.36,6.74,40.4,40.4,0,0,1-.35,5.38,13.68,13.68,0,0,1-.92,3.56,3.9,3.9,0,0,1-1.43,1.83,3.33,3.33,0,0,1,1.74,1.93,15.24,15.24,0,0,1,1,4.17,46.78,46.78,0,0,1,.31,6.34,57.67,57.67,0,0,1-.4,6.83,22.78,22.78,0,0,1-1,4.79,7.54,7.54,0,0,1-1.67,2.83,3.3,3.3,0,0,1-2.28,1Zm3.92-30.83.91-.07a1.72,1.72,0,0,0,1.45-.9A6.42,6.42,0,0,0,206,270a34.07,34.07,0,0,0,.22-4,20.5,20.5,0,0,0-.25-3.78,3.94,3.94,0,0,0-.82-2,1.65,1.65,0,0,0-1.43-.5l-.67.06C203,265.27,203,268,202.92,273.48Zm-.19,23.35,1,0c.92,0,1.56-.72,1.92-2.05a26.53,26.53,0,0,0,.57-6,40,40,0,0,0-.21-4.88,6.54,6.54,0,0,0-.77-2.64,1.53,1.53,0,0,0-1.45-.77l-.95.06C202.81,287.06,202.79,290.31,202.73,296.83Zm14.08,7.71a3.38,3.38,0,0,1-3.13-2,16.19,16.19,0,0,1-1.61-5.85,71.74,71.74,0,0,1-.44-9.16l.15-19.46a72.2,72.2,0,0,1,.56-9.2,17.68,17.68,0,0,1,1.7-6,4.05,4.05,0,0,1,3.14-2.33,3.12,3.12,0,0,1,3.15,1.73A15.08,15.08,0,0,1,222,258a70,70,0,0,1,.44,9.21c0,7.9-.07,11.85-.13,19.75a74.34,74.34,0,0,1-.56,9.34,17.32,17.32,0,0,1-1.71,6A3.7,3.7,0,0,1,216.81,304.54Zm.05-7.73c.47,0,.83-.34,1-1a10.21,10.21,0,0,0,.47-2.55c.08-1.07.12-2.21.13-3.42.07-10,.1-14.95.17-24.92,0-1.21,0-2.34-.09-3.37a9.42,9.42,0,0,0-.42-2.47c-.22-.61-.57-.89-1-.85s-.78.39-1,1a10.64,10.64,0,0,0-.46,2.54c-.08,1-.12,2.17-.13,3.38-.07,9.92-.11,14.88-.18,24.81,0,1.21,0,2.34.08,3.39a9.67,9.67,0,0,0,.41,2.51Q216.17,296.84,216.86,296.81Zm6.27,6.84q1.89-14.29,3.74-28.59c-1.3-9.84-2-14.73-3.26-24.47l3.46-.35c.82,6.05,1.22,9.08,2,15.17.76-6.21,1.13-9.33,1.89-15.57l3.08-.31q-1.71,13.89-3.44,27.79c1.37,10.36,2.06,15.57,3.45,26l-3.43.09c-.9-6.72-1.36-10.08-2.26-16.76-.87,6.77-1.3,10.15-2.17,16.88Z" style="fill:#263238"></path></g><g id="freepik--Symbol--inject-116"><path d="M255.31,120.18V104.46a90.12,90.12,0,0,0,8.94-11.06,55.68,55.68,0,0,0,6.29-12.11,36.91,36.91,0,0,0,2.32-12.91q0-4.78-1.67-7t-5-1.7a6.86,6.86,0,0,0-4.63,2.61,8.68,8.68,0,0,0-1.72,5.52,13.29,13.29,0,0,0,.38,3.38l.81,3.09-14.75,5.84A44,44,0,0,1,245.08,75a31.71,31.71,0,0,1-.43-5.28q0-10.68,5.65-17.55t16.21-8.32q10.75-1.48,16.58,4.22t5.81,17.74a46.64,46.64,0,0,1-2.26,14.56,55.25,55.25,0,0,1-6.51,13.37,84.84,84.84,0,0,1-10.07,12.38v12Zm-.54,26V128.36l15.94-2.2V144Z" style="fill:#263238"></path></g><g id="freepik--Lines--inject-116"><path d="M345.88,74.44H315a.5.5,0,0,1-.5-.5.5.5,0,0,1,.5-.5h30.91a.5.5,0,0,1,.5.5A.51.51,0,0,1,345.88,74.44Z" style="fill:#263238"></path><path d="M224.87,74.44H194a.5.5,0,0,1-.5-.5.5.5,0,0,1,.5-.5h30.91a.5.5,0,0,1,.5.5A.5.5,0,0,1,224.87,74.44Z" style="fill:#263238"></path><path d="M305.31,56.94a.5.5,0,0,1-.3-.9L324.1,41.72a.51.51,0,0,1,.7.1.5.5,0,0,1-.1.7L305.61,56.84A.47.47,0,0,1,305.31,56.94Z" style="fill:#263238"></path><path d="M227.37,111a.5.5,0,0,1-.3-.9l19.09-14.32a.5.5,0,0,1,.7.1.51.51,0,0,1-.1.7l-19.09,14.32A.57.57,0,0,1,227.37,111Z" style="fill:#263238"></path><path d="M236.51,47a.57.57,0,0,1-.3-.1L217.13,32.58a.5.5,0,0,1,.59-.8L236.81,46.1a.5.5,0,0,1,.1.7A.48.48,0,0,1,236.51,47Z" style="fill:#263238"></path><path d="M314.46,101.08a.49.49,0,0,1-.3-.1L295.07,86.67a.51.51,0,0,1-.1-.7.5.5,0,0,1,.7-.1l19.09,14.31a.5.5,0,0,1,.1.7A.51.51,0,0,1,314.46,101.08Z" style="fill:#263238"></path><path d="M267.93,37.66a.5.5,0,0,1-.5-.5V16.48a.5.5,0,0,1,1,0V37.16A.5.5,0,0,1,267.93,37.66Z" style="fill:#263238"></path></g><g id="freepik--Character--inject-116"><polygon points="128.84 273.55 138.09 266.33 132.16 263.93 128.84 273.55" style="fill:#92E3A9"></polygon><path d="M128.84,274a.53.53,0,0,1-.3-.09.5.5,0,0,1-.18-.57l3.33-9.62a.51.51,0,0,1,.27-.29.48.48,0,0,1,.39,0l5.92,2.41a.47.47,0,0,1,.31.39.48.48,0,0,1-.19.46l-9.25,7.22A.49.49,0,0,1,128.84,274Zm3.63-9.45-2.61,7.52,7.24-5.64Z" style="fill:#263238"></path><polygon points="119.38 229.51 133.28 258.19 128.84 273.55 119.58 260.95 119.38 229.51" style="fill:#92E3A9"></polygon><path d="M128.84,274a.51.51,0,0,1-.41-.2l-9.25-12.59a.51.51,0,0,1-.1-.29l-.2-31.44a.49.49,0,0,1,.39-.49.49.49,0,0,1,.56.26L133.73,258a.56.56,0,0,1,0,.36l-4.44,15.35a.52.52,0,0,1-.4.36Zm-8.76-13.25,8.56,11.64,4.1-14.2-12.85-26.51Z" style="fill:#263238"></path><polygon points="125.14 268 128.84 273.55 133.28 258.19 130.87 254.49 125.14 268" style="fill:#263238"></polygon><path d="M128.84,274a.5.5,0,0,1-.42-.22l-3.7-5.55a.52.52,0,0,1,0-.47l5.74-13.51a.5.5,0,0,1,.42-.3.5.5,0,0,1,.46.23l2.4,3.7a.5.5,0,0,1,.07.41l-4.44,15.35a.52.52,0,0,1-.41.36Zm-3.14-6.1,3,4.43,4.08-14.1L131,255.55Z" style="fill:#263238"></path><path d="M81.69,449.18,80.24,455s-8.56,4.74-9.22,5.4-.4,3.43-.4,3.43h24.5a22.58,22.58,0,0,0-.53-6.33,69.31,69.31,0,0,1-.68-7.74Z" style="fill:#263238"></path><path d="M95.12,464.29H70.62a.51.51,0,0,1-.5-.46c-.06-.7-.22-3.06.54-3.82s7.35-4.39,9.14-5.38l1.4-5.57a.5.5,0,0,1,.51-.38l12.23.54a.49.49,0,0,1,.47.48,73,73,0,0,0,.67,7.66,22.09,22.09,0,0,1,.53,6.47A.49.49,0,0,1,95.12,464.29Zm-24-1H94.65a23.53,23.53,0,0,0-.55-5.72,63.37,63.37,0,0,1-.67-7.37l-11.36-.5-1.35,5.38a.49.49,0,0,1-.24.32c-3.28,1.82-8.66,4.87-9.11,5.31A5.39,5.39,0,0,0,71.09,463.29ZM80.24,455h0Z" style="fill:#263238"></path><path d="M70.62,463.79h24.5s0-.6,0-1.59H70.58A14.19,14.19,0,0,0,70.62,463.79Z" style="fill:#fff"></path><path d="M95.12,464.29H70.62a.51.51,0,0,1-.5-.46,15.58,15.58,0,0,1,0-1.64.5.5,0,0,1,.5-.48H95.15a.49.49,0,0,1,.5.49c0,1,0,1.61,0,1.63A.51.51,0,0,1,95.12,464.29Zm-24-1H94.65c0-.16,0-.36,0-.58H71.07C71.07,462.92,71.08,463.12,71.09,463.29Z" style="fill:#263238"></path><path d="M71.54,460.1a11.47,11.47,0,0,1,5.93-2.64c4-.65,7.51.79,8.3,1.58a8.42,8.42,0,0,1,1.31,3l-16.5.13A1.38,1.38,0,0,1,71.54,460.1Z" style="fill:#fff"></path><path d="M70.58,462.71a.51.51,0,0,1-.44-.26,2.14,2.14,0,0,1-.14-1.73,1.92,1.92,0,0,1,1.29-1.07,12.13,12.13,0,0,1,6.1-2.68c4-.67,7.75.74,8.73,1.72A8.57,8.57,0,0,1,87.57,462a.49.49,0,0,1-.09.42.51.51,0,0,1-.39.19l-16.51.14Zm8.92-4.91a12,12,0,0,0-2,.16,11.12,11.12,0,0,0-5.65,2.49.5.5,0,0,1-.22.13,1.06,1.06,0,0,0-.76.52,1,1,0,0,0,0,.6l15.51-.12a6,6,0,0,0-1-2.18A10.24,10.24,0,0,0,79.5,457.8Zm-8,2.3h0Z" style="fill:#263238"></path><path d="M92.61,453.84c0,1.42-.5,2.57-1.11,2.57s-1.12-1.15-1.12-2.57.5-2.57,1.12-2.57S92.61,452.42,92.61,453.84Z" style="fill:#fff"></path><path d="M91.5,456.91c-1.07,0-1.62-1.54-1.62-3.07s.55-3.07,1.62-3.07,1.61,1.55,1.61,3.07S92.56,456.91,91.5,456.91Zm0-5.14c-.16,0-.62.76-.62,2.07s.46,2.05.62,2.07.61-.75.61-2.07S91.65,451.79,91.5,451.77Z" style="fill:#263238"></path><path d="M142.84,449.18l1.45,5.78s8.56,4.74,9.22,5.4.39,3.43.39,3.43H129.41a22.58,22.58,0,0,1,.53-6.33,71.16,71.16,0,0,0,.67-7.74Z" style="fill:#263238"></path><path d="M153.9,464.29H129.41a.51.51,0,0,1-.5-.46,22.75,22.75,0,0,1,.54-6.47,69.67,69.67,0,0,0,.66-7.66.5.5,0,0,1,.48-.48l12.23-.54a.49.49,0,0,1,.51.38l1.39,5.57c1.8,1,8.49,4.73,9.14,5.38s.61,3.12.54,3.82A.5.5,0,0,1,153.9,464.29Zm-24-1h23.56a5.37,5.37,0,0,0-.28-2.58c-.46-.44-5.83-3.49-9.11-5.31a.49.49,0,0,1-.24-.32l-1.36-5.38-11.36.5a61.26,61.26,0,0,1-.67,7.37A23.36,23.36,0,0,0,129.88,463.29Z" style="fill:#263238"></path><path d="M153.9,463.79H129.41a14.71,14.71,0,0,1,0-1.59H154A12.89,12.89,0,0,1,153.9,463.79Z" style="fill:#fff"></path><path d="M153.9,464.29H129.41a.51.51,0,0,1-.5-.46,16.05,16.05,0,0,1,0-1.63.5.5,0,0,1,.5-.49H154a.5.5,0,0,1,.5.48,12,12,0,0,1,0,1.64A.5.5,0,0,1,153.9,464.29Zm-24-1h23.56c0-.17,0-.37,0-.58H129.87C129.87,462.93,129.88,463.13,129.88,463.29Z" style="fill:#263238"></path><path d="M153,460.1a11.4,11.4,0,0,0-5.92-2.64c-3.95-.65-7.51.79-8.3,1.58a8.5,8.5,0,0,0-1.32,3l16.51.13A1.38,1.38,0,0,0,153,460.1Z" style="fill:#fff"></path><path d="M154,462.71h0l-16.51-.14a.49.49,0,0,1-.39-.19A.49.49,0,0,1,137,462a8.42,8.42,0,0,1,1.45-3.27c1-1,4.73-2.39,8.73-1.72a12.19,12.19,0,0,1,6.1,2.68,1.94,1.94,0,0,1,1.29,1.07,2.14,2.14,0,0,1-.14,1.73A.51.51,0,0,1,154,462.71Zm-15.85-1.13,15.51.12a1,1,0,0,0,0-.6,1.08,1.08,0,0,0-.76-.52.45.45,0,0,1-.22-.13A11.13,11.13,0,0,0,147,458c-3.81-.64-7.21.79-7.86,1.44A6.12,6.12,0,0,0,138.1,461.58Z" style="fill:#263238"></path><path d="M131.91,453.84c0,1.42.5,2.57,1.12,2.57s1.12-1.15,1.12-2.57-.5-2.57-1.12-2.57S131.91,452.42,131.91,453.84Z" style="fill:#fff"></path><path d="M133,456.91c-1.06,0-1.62-1.54-1.62-3.07s.56-3.07,1.62-3.07,1.62,1.55,1.62,3.07S134.09,456.91,133,456.91Zm0-5.14c-.16,0-.62.76-.62,2.07s.46,2.05.62,2.07.62-.75.62-2.07S133.19,451.79,133,451.77Z" style="fill:#263238"></path><polygon points="81.41 309.68 80.6 322.45 81.69 449.18 93.92 449.72 106.14 331.42 107.77 330.87 130.61 449.72 142.84 449.18 137.39 364.02 129.18 305.26 81.41 309.68" style="fill:#fff"></polygon><path d="M93.92,450.22h0l-12.23-.54a.5.5,0,0,1-.47-.5L80.1,322.45l.82-12.81a.49.49,0,0,1,.45-.46l47.76-4.42a.5.5,0,0,1,.54.43L137.89,364l5.45,85.19a.49.49,0,0,1-.13.36.51.51,0,0,1-.35.17l-12.23.54a.5.5,0,0,1-.51-.4L107.39,331.53l-.78.26-12.2,118A.49.49,0,0,1,93.92,450.22Zm13.85-119.85a.59.59,0,0,1,.26.07.48.48,0,0,1,.23.34L131,449.2l11.29-.5-5.42-84.64-8.14-58.26-46.86,4.33-.79,12.35L82.18,448.7l11.29.5,12.18-117.84a.5.5,0,0,1,.33-.42l1.64-.54Z" style="fill:#263238"></path><path d="M107.22,323h-.14a.51.51,0,0,1-.36-.49v-9.32a.5.5,0,0,1,.5-.5.51.51,0,0,1,.5.5v7.52l1.55-2.59.41-6.23a.49.49,0,0,1,.53-.47.5.5,0,0,1,.47.54l-.42,6.35a.52.52,0,0,1-.07.22l-2.55,4.24A.49.49,0,0,1,107.22,323Z" style="fill:#263238"></path><path d="M124,272.71s-4.19-41.77-4.6-43.2-23.68-1.83-25.52-1.63-4.08.2-4.08.2-27.57,12-28,13.27L71.6,263.2s8.58,26.13,8.58,28.79S81,311,81,311s15.72,2.25,28.78-.81,19.4-4.9,19.4-4.9Z" style="fill:#92E3A9"></path><path d="M93.82,312.26a103.24,103.24,0,0,1-12.89-.79.5.5,0,0,1-.43-.47c0-.67-.82-16.38-.82-19,0-2.12-6.17-21.39-8.55-28.63l-9.78-21.8a.5.5,0,0,1,0-.36c.42-1.25,17.88-9,28.25-13.57a.46.46,0,0,1,.2,0s2.24,0,4-.2c.25,0,25.45-.15,26.06,2,.41,1.42,4.18,38.91,4.61,43.26l5.2,32.54a.5.5,0,0,1-.35.56c-.07,0-6.49,1.87-19.42,4.9A72.05,72.05,0,0,1,93.82,312.26Zm-12.35-1.73c2.56.32,16.54,1.87,28.2-.86,11-2.59,17.32-4.32,18.94-4.77l-5.13-32.12v0c-1.65-16.4-4.18-41-4.56-43-1.83-1.1-23-1.59-25-1.36-1.64.18-3.56.2-4,.2C80,232.9,64.36,240,62.4,241.46L72.06,263c.37,1.12,8.62,26.29,8.62,29C80.68,294.36,81.35,308,81.47,310.53Z" style="fill:#263238"></path><path d="M76.94,280l46.49-9.77-.38-2.3s-.06-.76-.18-2.06l-47.24,9.93C76.07,277.16,76.51,278.58,76.94,280Z" style="fill:#263238"></path><path d="M129.18,305.26l-4.59-28-45.65,9.45A32.87,32.87,0,0,1,80.18,292c0,2.65.82,19,.82,19s15.72,2.25,28.78-.81S129.18,305.26,129.18,305.26Z" style="fill:#263238"></path><path d="M93.82,312.26a103.24,103.24,0,0,1-12.89-.79.5.5,0,0,1-.43-.47c0-.67-.82-16.38-.82-19a29.47,29.47,0,0,0-1.22-5.12.45.45,0,0,1,.06-.39.47.47,0,0,1,.32-.23l45.65-9.46a.51.51,0,0,1,.6.41l4.58,28a.5.5,0,0,1-.35.56c-.07,0-6.49,1.87-19.42,4.9A72.05,72.05,0,0,1,93.82,312.26Zm-12.35-1.73c2.56.32,16.54,1.87,28.2-.86,11-2.59,17.32-4.31,18.94-4.77l-4.43-27-44.61,9.24A23.93,23.93,0,0,1,80.68,292C80.68,294.36,81.35,308,81.47,310.53Z" style="fill:#263238"></path><path d="M93.86,227.88c-1.84.2-4.08.2-4.08.2s-5.17,2.26-11.07,4.92l22.15,17.89s7.15-21.82,6.82-22.74C101.84,227.92,94.74,227.78,93.86,227.88Z" style="fill:#263238"></path><path d="M100.86,251.39a.45.45,0,0,1-.31-.11L78.4,233.39a.5.5,0,0,1-.19-.45.52.52,0,0,1,.3-.39c5.82-2.63,11-4.9,11.07-4.92a.46.46,0,0,1,.2,0s2.24,0,4-.2h0c1-.1,8.47.06,13.9.27a.51.51,0,0,1,.46.33c.33.94-4.13,14.86-6.82,23.07a.48.48,0,0,1-.33.32A.39.39,0,0,1,100.86,251.39Zm-21.2-18.26,21,16.92c2.48-7.58,6.08-19,6.54-21.42-5.73-.22-12.41-.35-13.24-.25h0c-1.64.18-3.56.2-4,.2C89.18,228.89,84.74,230.83,79.66,233.13Z" style="fill:#263238"></path><path d="M101.62,220.94s1.19,8.56,1.8,10.6S99.17,245,99.17,245s-11-7.08-12.46-10.55S82,218.9,82,218.9,92.43,224.2,101.62,220.94Z" style="fill:#fff"></path><path d="M99.17,245.46a.5.5,0,0,1-.27-.08c-.46-.29-11.18-7.2-12.65-10.78S81.67,219.52,81.53,219a.51.51,0,0,1,.17-.52.49.49,0,0,1,.54-.06c.11.05,10.34,5.17,19.21,2a.5.5,0,0,1,.43,0,.52.52,0,0,1,.23.36c0,.08,1.2,8.55,1.79,10.53s-3.45,11.83-4.27,13.75a.51.51,0,0,1-.32.29ZM82.78,219.8c.83,3,3.24,11.62,4.4,14.42s9.61,8.57,11.76,10c1.85-4.38,4.39-11.22,4-12.52-.53-1.76-1.45-8.09-1.73-10.09C93.64,224,85.57,221,82.78,219.8Z" style="fill:#263238"></path><path d="M82,218.9s.74,2.75,1.68,6c.49.28,1.09.59,1.82,1a20.94,20.94,0,0,0,12.4,2.27,5.8,5.8,0,0,0,4.2-3.07c-.29-2.28-.5-4.11-.5-4.11C92.43,224.2,82,218.9,82,218.9Z" style="fill:#263238"></path><path d="M95.24,228.8a21.93,21.93,0,0,1-9.94-2.5c-.74-.37-1.34-.69-1.84-1a.45.45,0,0,1-.24-.3c-.94-3.25-1.69-6-1.69-6a.51.51,0,0,1,.17-.52.49.49,0,0,1,.54-.06c.11.05,10.34,5.17,19.21,2a.5.5,0,0,1,.43,0,.48.48,0,0,1,.23.37s.21,1.83.5,4.11a.44.44,0,0,1-.06.32A6.25,6.25,0,0,1,98,228.62,21,21,0,0,1,95.24,228.8Zm-11.12-4.24,1.62.84a20.29,20.29,0,0,0,12.11,2.23,5.15,5.15,0,0,0,3.75-2.69c-.18-1.41-.33-2.64-.41-3.33C93.63,224,85.56,221,82.78,219.8,83.07,220.86,83.56,222.61,84.12,224.56Z" style="fill:#263238"></path><path d="M96.37,194.14a76.85,76.85,0,0,0,5.16,8.89c2.07,2.68,5.38,8.67,3.93,12.19s-2.39,9.49-7,10.12A20.94,20.94,0,0,1,86,223.07c-3.72-1.86-4.13-2.48-4.13-2.48a9.4,9.4,0,0,1-5-1.45c-1.86-1.44-5.58-6-4.55-9.92s3.51-4.33,3.51-4.33-5.16-2.07-1.86-7.24,10.34-7,13.64-7S96.37,194.14,96.37,194.14Z" style="fill:#fff"></path><path d="M95.76,226a22.1,22.1,0,0,1-10-2.5,20.71,20.71,0,0,1-4.12-2.44,9.46,9.46,0,0,1-5-1.54c-1.94-1.51-5.83-6.24-4.72-10.44a6.58,6.58,0,0,1,2.85-4.28,5.16,5.16,0,0,1-2.12-2.63,5.67,5.67,0,0,1,1-4.81c3.39-5.28,10.42-7.25,14.06-7.25,3.42,0,8.73,3.45,9,3.59a.49.49,0,0,1,.18.2,76.46,76.46,0,0,0,5.11,8.8c1.67,2.17,5.64,8.68,4,12.69-.27.66-.53,1.43-.8,2.24-1.15,3.4-2.58,7.64-6.62,8.19A21,21,0,0,1,95.76,226Zm-13.44-5.71a18,18,0,0,0,3.94,2.31,20.29,20.29,0,0,0,12.11,2.23c3.42-.47,4.68-4.21,5.8-7.52.28-.82.54-1.61.83-2.31,1.3-3.16-1.68-8.85-3.86-11.69A72.35,72.35,0,0,1,96,194.49c-.77-.49-5.42-3.36-8.29-3.36s-9.93,1.66-13.21,6.79a4,4,0,0,0,1.62,6.5.51.51,0,0,1,.31.52.5.5,0,0,1-.41.44c-.09,0-2.19.44-3.12,4s2.39,7.86,4.37,9.4a9,9,0,0,0,4.66,1.34.49.49,0,0,1,.41.22Z" style="fill:#263238"></path><path d="M86.08,201.52a.5.5,0,0,1-.12-1l5.83-1.5a.51.51,0,0,1,.61.36A.5.5,0,0,1,92,200l-5.83,1.5Z" style="fill:#263238"></path><path d="M97.24,207.9a3.12,3.12,0,0,1-.54,0,.5.5,0,0,1,.16-1,2.45,2.45,0,0,0,2.75-1.94c.09-.27.12-.48.06-.57s-.52-.28-.93-.39a5.22,5.22,0,0,1-1.83-.74,6.36,6.36,0,0,1-2-2,.51.51,0,0,1,.22-.67.5.5,0,0,1,.67.22,5.67,5.67,0,0,0,1.71,1.68,4.54,4.54,0,0,0,1.5.6c.65.16,1.27.32,1.56.87a1.65,1.65,0,0,1,0,1.37A3.48,3.48,0,0,1,97.24,207.9Z" style="fill:#263238"></path><path d="M94,212.22l-.4,0a11.85,11.85,0,0,1-1.83-.29.51.51,0,0,1-.36-.61.5.5,0,0,1,.61-.36,10.65,10.65,0,0,0,1.66.27c2.51.2,6.29-2,6.32-2a.5.5,0,0,1,.69.18.5.5,0,0,1-.18.68C100.39,210.16,96.8,212.22,94,212.22Z" style="fill:#263238"></path><path d="M91.41,202.75c.46.72.48,1.53,0,1.81s-1.17-.08-1.63-.79-.47-1.53,0-1.81S91,202,91.41,202.75Z" style="fill:#263238"></path><path d="M98,199.63c.46.72.47,1.53,0,1.81s-1.16-.08-1.62-.79-.47-1.53,0-1.81S97.55,198.91,98,199.63Z" style="fill:#263238"></path><path d="M94.16,198.31a.46.46,0,0,1-.23-.06.49.49,0,0,1-.21-.67c.49-.94,1.92-2.46,3.78-1.54a.5.5,0,1,1-.44.9c-1.43-.71-2.36.92-2.46,1.11A.51.51,0,0,1,94.16,198.31Z" style="fill:#263238"></path><path d="M76.53,200.55s12.19-1.76,13.22-4-.82-2.17-.82-2.17,11.57.41,12.81-3.1-4.13-5-5.78-5H93.48s-.62-5.17-6.62-3.93-17.56,9.1-19,13.64-4.76,6-2.28,11.36,9.3,9.72,9.3,9.72-1-3.93,1-4.14,5.58,1.24,6.2,1.24,2.48-1.65,1.45-2.68-2.07-1.66-2.27-2.28,1-2.68.2-4.54S76.53,200.55,76.53,200.55Z" style="fill:#263238"></path><path d="M74.88,217.58a.53.53,0,0,1-.27-.08c-.28-.18-7-4.48-9.48-9.93-1.82-3.93-.68-5.94.63-8.26a18.25,18.25,0,0,0,1.62-3.46c1.5-4.71,13.31-12.72,19.38-14a6.25,6.25,0,0,1,5.08.76,5.5,5.5,0,0,1,2,3.16H96c1.35,0,4.57.8,5.88,2.66a3.13,3.13,0,0,1,.37,3c-1.07,3-8.35,3.43-11.71,3.45a2.72,2.72,0,0,1-.29,1.85c-.94,2.05-8.7,3.54-12.23,4.11,1.34.85,3.38,2.31,4,3.65a5.65,5.65,0,0,1,0,3.78,3.6,3.6,0,0,0-.17.82,4.29,4.29,0,0,0,1,1c.35.3.74.63,1.13,1a1.56,1.56,0,0,1,.31,1.77,3,3,0,0,1-2.11,1.77,7.05,7.05,0,0,1-1.49-.36,14.69,14.69,0,0,0-4.66-.88.72.72,0,0,0-.55.31c-.47.68-.28,2.32,0,3.2a.48.48,0,0,1-.19.53A.51.51,0,0,1,74.88,217.58Zm13.73-34.91a8.14,8.14,0,0,0-1.64.18c-5.72,1.19-17.25,8.94-18.64,13.3a18.33,18.33,0,0,1-1.7,3.65c-1.27,2.26-2.19,3.89-.59,7.36,1.83,4,6.18,7.42,8.13,8.82a4.33,4.33,0,0,1,.42-2.8,1.69,1.69,0,0,1,1.27-.73,15,15,0,0,1,5,.91,9.34,9.34,0,0,0,1.21.32,2.3,2.3,0,0,0,1.21-1.22.54.54,0,0,0-.11-.61c-.38-.37-.75-.69-1.08-1a3.94,3.94,0,0,1-1.32-1.5A2.65,2.65,0,0,1,81,208a4.8,4.8,0,0,0,.08-3.12c-.63-1.4-3.64-3.29-4.75-3.9a.48.48,0,0,1-.25-.52.51.51,0,0,1,.42-.41c5-.71,12.2-2.35,12.84-3.74.38-.84.26-1.16.19-1.26a.6.6,0,0,0-.42-.2h-.16a.5.5,0,0,1,0-1h.24c3.24.1,11.23-.22,12.13-2.77A2.12,2.12,0,0,0,101,189c-1.11-1.57-4.07-2.23-5.06-2.23H93.48a.5.5,0,0,1-.5-.44,4.66,4.66,0,0,0-1.73-2.92A4.48,4.48,0,0,0,88.61,182.67Z" style="fill:#263238"></path><path d="M95.27,324A.59.59,0,0,1,95,324L84.7,318a.5.5,0,1,1,.5-.87l10.32,6a.52.52,0,0,1,.19.69A.51.51,0,0,1,95.27,324Z" style="fill:#263238"></path><path d="M120.55,322.13a.49.49,0,0,1-.4-.8l6.25-8.15a.5.5,0,1,1,.79.61l-6.25,8.15A.48.48,0,0,1,120.55,322.13Z" style="fill:#263238"></path><path d="M104.56,216.34a18.39,18.39,0,0,1-2.92,2.18c-1.13.57-1.42.82-.72,1.62s4-.16,4-.16Z" style="fill:#fff"></path><path d="M102.13,221a2.13,2.13,0,0,1-1.59-.48,1.48,1.48,0,0,1-.48-1.2c.1-.53.6-.82,1.36-1.2a18.5,18.5,0,0,0,2.8-2.1.48.48,0,0,1,.51-.1.49.49,0,0,1,.32.41l.41,3.64a.52.52,0,0,1-.36.54A12.27,12.27,0,0,1,102.13,221ZM101,219.47a2.55,2.55,0,0,0,.25.34c.24.27,1.67.16,3.13-.21l-.26-2.26a14.28,14.28,0,0,1-2.29,1.63,3.44,3.44,0,0,0-.83.5Z" style="fill:#263238"></path><path d="M117.25,223.7a3.8,3.8,0,0,1-3.84,0,20.57,20.57,0,0,1-3.33-2,4.63,4.63,0,0,1-1.36,2,7.89,7.89,0,0,1-2.27.85,10.91,10.91,0,0,1-2.22-2.39,9.76,9.76,0,0,1-.89-4.45c0-1.13,4.53-4,4.53-4l-2.27-.28s-2.84,1.7-3.7,2.27-1.76,1.13-2.21-.15c-.67-1.87,6.36-4.92,6.36-4.92s4-.28,5.69-.28,9.7,11.48,10.41,12.19,19.18,27.47,21.08,30.31.71,9.47-.48,12.08-5.92,2.13-8.05,1.89-5.92-8.05-6.39-9.94S117.25,223.7,117.25,223.7Z" style="fill:#fff"></path><path d="M137.65,267.56a27.5,27.5,0,0,1-3-.2c-2.56-.28-6.42-8.69-6.83-10.32S118.38,228.6,117,224.41a4.48,4.48,0,0,1-3.77-.27,26,26,0,0,1-2.9-1.66,4.1,4.1,0,0,1-1.29,1.63,8,8,0,0,1-2.45.93.49.49,0,0,1-.41-.1,10.83,10.83,0,0,1-2.35-2.55,10.13,10.13,0,0,1-1-4.62c0-1,2-2.63,3.61-3.69l-.74-.1c-.6.36-2.81,1.69-3.53,2.17a2.53,2.53,0,0,1-2,.66,1.56,1.56,0,0,1-.92-1.05c-.77-2.15,4.88-4.79,6.64-5.54a.29.29,0,0,1,.16,0c.16,0,4-.29,5.72-.29,1.29,0,4.22,3.6,9.17,10.25.74,1,1.44,1.94,1.59,2.09.82.82,19.87,28.48,21.14,30.39,2,3,.78,9.89-.43,12.56C142.32,267.13,139.85,267.56,137.65,267.56Zm-20.4-44.36a.39.39,0,0,1,.15,0,.51.51,0,0,1,.32.32c.43,1.28,10.6,31.36,11.07,33.26.54,2.17,4.29,9.38,6,9.57s6.48.72,7.54-1.61c1.17-2.59,2.26-9,.51-11.59-1.89-2.83-20.19-29.35-21-30.24-.19-.19-.68-.84-1.68-2.2-1.79-2.39-7.22-9.69-8.38-9.84-1.52,0-5,.24-5.56.28-3.1,1.35-6.31,3.42-6,4.25.09.25.19.4.29.44s.85-.32,1.18-.54c.85-.57,3.59-2.21,3.71-2.28a.46.46,0,0,1,.32-.07l2.27.28a.53.53,0,0,1,.43.39.5.5,0,0,1-.22.53c-2.24,1.4-4.25,3.06-4.3,3.55a9.11,9.11,0,0,0,.84,4.21,9.42,9.42,0,0,0,1.9,2.08,6.93,6.93,0,0,0,1.87-.73,4.14,4.14,0,0,0,1.16-1.73.52.52,0,0,1,.33-.32.52.52,0,0,1,.45.09,20,20,0,0,0,3.24,1.93,3.29,3.29,0,0,0,3.33,0A.5.5,0,0,1,117.25,223.2Z" style="fill:#263238"></path><path d="M104.8,223.14a.51.51,0,0,1-.5-.43c-.23-1.77-.4-4,.14-4.54s4.47-3.3,4.92-3.61a.5.5,0,1,1,.58.81c-1.68,1.18-4.46,3.17-4.79,3.5a14.25,14.25,0,0,0,.14,3.71.5.5,0,0,1-.43.56Z" style="fill:#263238"></path><path d="M106.45,225.05a.51.51,0,0,1-.5-.49l-.15-5a.51.51,0,0,1,.22-.44l4.81-3.13a.5.5,0,0,1,.55.84l-4.58,3,.15,4.71a.5.5,0,0,1-.48.52Z" style="fill:#263238"></path><line x1="107.87" y1="213.75" x2="109.46" y2="212.76" style="fill:#fff"></line><path d="M107.87,214.25a.47.47,0,0,1-.42-.24.48.48,0,0,1,.16-.68l1.58-1a.5.5,0,1,1,.53.85l-1.58,1A.47.47,0,0,1,107.87,214.25Z" style="fill:#263238"></path><path d="M110.08,222.21a.46.46,0,0,1-.32-.11l-.8-.67-.69.44a.5.5,0,0,1-.53-.85l1-.63a.51.51,0,0,1,.59,0l1.08.9a.51.51,0,0,1,.06.71A.52.52,0,0,1,110.08,222.21Z" style="fill:#263238"></path><polygon points="61.8 241.35 45.03 275.21 65.38 283.35 71.61 263.2 61.8 241.35" style="fill:#92E3A9"></polygon><path d="M65.38,283.85a.39.39,0,0,1-.18,0l-20.35-8.14a.5.5,0,0,1-.29-.28.51.51,0,0,1,0-.4l16.78-33.86a.46.46,0,0,1,.46-.28.5.5,0,0,1,.44.3L72.06,263a.5.5,0,0,1,0,.36L65.86,283.5a.51.51,0,0,1-.26.3A.59.59,0,0,1,65.38,283.85ZM45.72,275l19.34,7.73,6-19.45-9.29-20.7Z" style="fill:#263238"></path><path d="M80.42,302.45l-5.78-6L59.19,280.9,46.35,276s-3.3,7.33-3.3,8.62,5.17,6.8,6.45,7.53,20.46,10,20.46,10a4.73,4.73,0,0,1,.3.4l2,2.65s-.4,3.85.66,5.58c0,0-1.24-.28-.8.94A6.9,6.9,0,0,0,73.44,313c.73.55,4.77,1.84,5.5,1.47S81,311,81,311s1.34.1,1.7-.45a21.15,21.15,0,0,1,1.74-1.89Z" style="fill:#fff"></path><path d="M78.53,315.06a14.38,14.38,0,0,1-5.39-1.63A7.66,7.66,0,0,1,71.68,312a.83.83,0,0,1-.07-.13,1.24,1.24,0,0,1,.11-1.3,1,1,0,0,1,.4-.26,13.58,13.58,0,0,1-.42-5l-1.84-2.5-.22-.3c-1.68-.82-19.14-9.26-20.39-10s-6.7-6.33-6.7-8c0-1.33,2.78-7.59,3.34-8.83a.51.51,0,0,1,.64-.26l12.84,4.95a.66.66,0,0,1,.17.12L75,296.11l5.78,6a.21.21,0,0,1,.06.08l4,6.18a.5.5,0,0,1-.07.63,20.12,20.12,0,0,0-1.67,1.8,2.22,2.22,0,0,1-1.8.69c-.48,1.11-1.42,3.1-2.16,3.47A1.52,1.52,0,0,1,78.53,315.06Zm-6-3.62a7.06,7.06,0,0,0,1.21,1.19c.67.51,4.38,1.63,5,1.42a11.74,11.74,0,0,0,1.8-3.27.51.51,0,0,1,.5-.31,2,2,0,0,0,1.26-.23,15.14,15.14,0,0,1,1.51-1.68L80,302.76l-5.75-5.95L58.91,281.33l-12.3-4.75c-1.26,2.83-3.06,7.17-3.06,8s4.87,6.34,6.2,7.1,20.23,9.89,20.43,10a.4.4,0,0,1,.16.13s.14.17.33.44l2,2.63a.49.49,0,0,1,.09.35c-.1,1-.2,4,.6,5.27a.5.5,0,0,1-.54.75,1,1,0,0,0-.3,0S72.49,311.31,72.53,311.44Z" style="fill:#263238"></path><path d="M74.34,312.83a.5.5,0,0,1-.37-.16l-1.46-1.59a.5.5,0,0,1,.74-.68l1.46,1.6a.49.49,0,0,1,0,.7A.5.5,0,0,1,74.34,312.83Z" style="fill:#263238"></path><polygon points="66.72 279.03 47.14 270.95 45.03 275.21 65.38 283.35 66.72 279.03" style="fill:#263238"></polygon><path d="M65.38,283.85a.39.39,0,0,1-.18,0l-20.35-8.14a.5.5,0,0,1-.29-.28.51.51,0,0,1,0-.4l2.12-4.27a.49.49,0,0,1,.63-.24l19.58,8.09a.5.5,0,0,1,.28.61l-1.33,4.32a.51.51,0,0,1-.26.3A.59.59,0,0,1,65.38,283.85ZM45.72,275l19.34,7.73,1-3.36-18.72-7.73Z" style="fill:#263238"></path></g></svg>
